<?xml version="1.0" encoding="utf-8"?>
<!-- Generator: Adobe Illustrator 16.0.0, SVG Export Plug-In . SVG Version: 6.00 Build 0)  -->
<!DOCTYPE svg PUBLIC "-//W3C//DTD SVG 1.1//EN" "http://www.w3.org/Graphics/SVG/1.1/DTD/svg11.dtd">
<svg version="1.1" id="Layer_1" xmlns="http://www.w3.org/2000/svg" xmlns:xlink="http://www.w3.org/1999/xlink" x="0px" y="0px"
	 width="1938.193px" height="1244.236px" viewBox="0 0 1938.193 1244.236" enable-background="new 0 0 1938.193 1244.236"
	 xml:space="preserve">
<rect x="28.278" y="39.236" fill="none" stroke="#E7751B" stroke-width="3" stroke-miterlimit="10" width="1884" height="1181"/>
<g>
	<g>
		<defs>
			<path id="SVGID_1_" d="M1850.275,1200.641c-6.27-33.359-5.643-66.722,31.66-30.298c37.303,36.426,5.956-54.805,5.956-54.805
				l-35.735-35.403l-25.078-3.064l-38.87,10.552l-15.36,29.276v29.275l12.539,35.063l32.602,15.999L1850.275,1200.641z"/>
		</defs>
		<clipPath id="SVGID_2_">
			<use xlink:href="#SVGID_1_"  overflow="visible"/>
		</clipPath>
		<g opacity="0.8" clip-path="url(#SVGID_2_)">
			<g>
				<g>
					<g>
						<g>
							<g>
								<path fill="#D89043" d="M1852.6,1171.914c-0.9,0.101-1.858,0.917-2.843,1.581
									C1850.763,1173.32,1851.622,1172.779,1852.6,1171.914z"/>
								<path fill="#D89043" d="M1849.731,1173.5l-0.012,0.015c0.015-0.008,0.024-0.014,0.037-0.02
									C1849.746,1173.497,1849.739,1173.498,1849.731,1173.5z"/>
								<path fill="#D89043" d="M1868.62,1185.64c0.322-0.347,0.689-0.743,1.062-1.145
									C1869.31,1184.862,1868.939,1185.243,1868.62,1185.64z"/>
								<path fill="#D89043" d="M1801.311,1161.88l-0.765,0.269c-1.448-2.485,0.367-1.188-1.123-3.354
									c-1.419-0.454-1.786-3.994-2.531-4.671c0.092-0.013-0.313-1.25,0.049-1.283c-0.722-0.179-0.61-1.202-0.921-1.964
									c-0.237-0.244-0.124,0.261-0.248,0.531l-0.678-1.789c0.004-0.77,0.311-1.019,0.578-0.262c-0.066-0.3-0.148-0.67-0.244-1.104
									c-0.09-0.435-0.122-0.947-0.201-1.504c-0.124-1.121-0.397-2.441-0.396-3.94c-0.039-0.744-0.079-1.524-0.121-2.333
									c0.032-0.808,0.066-1.644,0.102-2.498c0.013-0.427,0.024-0.858,0.038-1.293c0.055-0.431,0.11-0.865,0.166-1.302
									c0.108-0.872,0.218-1.753,0.327-2.635c0.419-1.722,0.646-3.492,1.228-5.085c0.266-0.802,0.438-1.621,0.739-2.359
									c0.298-0.739,0.585-1.455,0.86-2.139c1.154-2.703,2.309-4.776,2.964-5.858c-0.74,0.311-1.352,1.775-2.208,2.013
									c0.062-0.358,0.159-0.65,0.265-0.896c0.13-0.23,0.272-0.414,0.396-0.578c0.252-0.33,0.445-0.577,0.427-0.948
									c0.602,0.062,1.054-0.532,1.533-1.187c0.521-0.618,1.146-1.24,1.876-1.305l-0.246-0.686l0.698-0.29
									c0.355-0.66,0.757-1.066,1.02-1.435c0.273-0.36,0.472-0.621,0.618-0.815c0.294-0.39,0.385-0.509,0.479-0.594
									c0.094-0.086,0.19-0.138,0.492-0.401c0.304-0.261,0.896-0.632,1.895-1.448c1.064-1.067,1.884-1.783,2.547-2.481
									c0.336-0.343,0.646-0.655,0.968-0.928c0.331-0.254,0.704-0.409,1.106-0.541c-0.219,0.107-0.999,0.09-0.383-0.409
									c0.375,0.419,1.668-1.327,2.244-1.032c0.679-0.341,2.999-1.204,1.959-1.58c0.269,0.104,0.913-0.071,1.379-0.071
									c0.467,0.001,0.713,0.056,0.134,0.379c0.722-0.172,1.436-0.262,1.902-0.567l-0.971,0.063
									c1.196-0.388,2.145-0.604,3.011-0.643c0.855-0.094,1.576-0.258,2.346-0.732l-0.962-0.124
									c0.375-0.068,0.729-0.186,1.072-0.199c0.344-0.019,0.666-0.025,0.961-0.009c0.589,0.035,1.065,0.17,1.374,0.512
									l-1.512,0.327c2.457-0.26,3.931-0.181,6.046-0.46c0.002-0.025-0.74-0.091-0.741-0.076c0.341-0.109,0.854-0.109,1.506-0.1
									c0.656,0.015,1.445,0.033,2.324,0.053c0.874,0.135,1.837,0.282,2.843,0.437c0.253,0.043,0.514,0.066,0.769,0.125
									c0.252,0.069,0.505,0.141,0.76,0.212c0.515,0.139,1.033,0.278,1.553,0.419c1.065,0.218,2.048,0.676,3.027,1.027
									c0.492,0.178,0.973,0.353,1.436,0.521c0.445,0.214,0.874,0.421,1.281,0.617c0.819,0.39,1.568,0.723,2.203,0.978
									c0.595,0.319,1.075,0.557,1.41,0.667l-0.656-1.218l2.152,1.043c-0.23-0.182-2.012,0.783-2.07,0.504
									c0.489,0.36,1.236,0.91,2.176,1.602c0.854,0.807,1.925,1.73,3.074,2.815c0.531,0.591,1.09,1.213,1.668,1.856
									c0.292,0.319,0.59,0.645,0.892,0.975c0.285,0.345,0.537,0.727,0.813,1.094c0.549,0.739,1.109,1.495,1.676,2.259
									c0.511,0.802,0.979,1.645,1.479,2.465l0.744,1.234c0.203,0.436,0.406,0.869,0.607,1.301
									c0.405,0.862,0.807,1.714,1.198,2.547c0.309,0.869,0.611,1.719,0.902,2.537c0.147,0.409,0.293,0.811,0.435,1.203
									c0.116,0.4,0.203,0.802,0.303,1.188c0.889,3.065,1.083,5.59,1.222,6.737c-0.143,1.895-0.859,0.429-0.939,0.426
									c0.363,2.208,0.662,0.908,0.757,2.825c-0.062,0.527-0.452-0.087-0.556-0.37c0.128,0.828,0.011,1.603,0.246,1.66
									c0.166-1.05,0.87-0.635,1.301-1.106c0,0,0.009,0.157,0.021,0.393c0.02,0.236,0.032,0.551,0.007,0.867
									c-0.026,0.63-0.053,1.26-0.053,1.26l-0.441-0.113c-0.012,0.278,0.286,0.633,0.555,1.237
									c0.134,0.303,0.261,0.668,0.339,1.115c0.078,0.446,0.021,0.968-0.093,1.585c-0.178,1.041-0.245,2.118-0.449,3.184
									c-0.226,1.062-0.435,2.136-0.635,3.214c-0.229,1.07-0.591,2.104-0.872,3.15c-0.254,1.059-0.688,2.038-1.094,3.003
									c-0.224-0.158-0.053-1.028,0.123-1.886c-0.219,0.51-0.466,1.32-0.829,1.726c0.801-0.763-0.339,1.737,0.128,1.083
									c-0.02,0.405-0.044,0.828-0.149,1.227c-0.115,0.394-0.257,0.789-0.416,1.182c-0.319,0.787-0.709,1.568-1.099,2.334
									c-0.453,0.728-0.938,1.42-1.336,2.114c-0.424,0.677-0.692,1.409-0.998,2.024c0.325,0.368,2.821,3.977,4.959,8.078
									c1.111,2.061,1.994,4.083,2.729,5.744c0.721,1.646,1.231,2.851,1.44,3.051c-0.855,0.861-1.713,1.71-2.037,1.904
									c0.403-0.021,2.168-1.649,2.93-2.68l-0.305-0.579c1.808-2.258,0.802-0.195,2.543-2.43c0.244,0.101-0.017,0.683-0.521,1.473
									c-0.531,0.767-1.38,1.677-2.161,2.538c0.766-0.719,1.532-1.44,2.183-2.053c0.591-0.665,1.003-1.282,1.052-1.789
									c1.378-1.417,0.349,0.567,1.989-1.186c0.991-1.406,1.714-3.574,3.005-5.051l0.059,0.076
									c1.545-1.837,2.082-3.606,2.717-5.234c0.285-0.829,0.639-1.614,0.915-2.476c0.297-0.854,0.66-1.729,1.167-2.676
									l-0.008,0.489c0.4-0.653,0.818-1.702,1.2-2.912c0.339-1.225,0.714-2.59,1.236-3.857c-0.312,0.722-0.85,1.263-0.464-0.312
									c0.625-1.443,0.787-2.743,1.049-3.913c0.226-1.178,0.483-2.244,0.833-3.339l-0.266-2.219
									c0.132-1.332,0.401-3.155,0.364-5.359c0.006-1.101,0.012-2.294,0.019-3.564c-0.07-1.267-0.194-2.609-0.31-4.013
									c-0.573-5.59-1.92-12.136-4.512-18.261c-2.531-6.144-6.125-11.798-9.67-16.202c-3.68-4.316-7.204-7.472-9.365-9.133
									l0.39,0.199c-0.837-0.62-1.729-1.28-2.67-1.977c-0.476-0.341-0.946-0.713-1.46-1.049c-0.527-0.319-1.067-0.646-1.618-0.979
									c-1.109-0.651-2.237-1.372-3.459-2.019c-1.254-0.592-2.547-1.201-3.872-1.825c-5.389-2.298-11.705-3.956-18.181-4.342
									c-1.62-0.038-3.242-0.135-4.854-0.08c-1.611,0.111-3.216,0.237-4.798,0.377c-1.572,0.235-3.119,0.55-4.641,0.837
									c-0.379,0.078-0.76,0.14-1.132,0.232c-0.368,0.108-0.735,0.216-1.101,0.322c-0.728,0.22-1.449,0.437-2.163,0.651
									c-0.71,0.224-1.419,0.424-2.102,0.668c-0.669,0.281-1.329,0.559-1.979,0.832c-0.648,0.279-1.286,0.554-1.913,0.824
									s-1.244,0.534-1.808,0.875c-2.289,1.291-4.43,2.439-6.105,3.785c-0.616,0.27-1.267,0.61-1.93,0.993
									c-0.328,0.197-0.664,0.398-1.002,0.603c-0.331,0.215-0.633,0.471-0.949,0.712c-1.243,0.997-2.496,2.003-3.577,2.871
									c1.308-0.853,1.135-0.247,0.22,0.513c-2.937,2.953-2.947,3.138-2.972,3.319c-0.009,0.095-0.014,0.197-0.366,0.664
									c-0.38,0.443-0.992,1.344-2.233,3.017c-0.684,0.985-1.7,2.252-2.658,3.927c-0.505,0.82-1.05,1.708-1.629,2.651
									c-0.593,0.935-1.049,2.011-1.616,3.089c-0.272,0.545-0.551,1.102-0.833,1.668c-0.141,0.283-0.283,0.568-0.427,0.857
									c-0.118,0.297-0.238,0.598-0.359,0.899c-0.478,1.212-0.971,2.459-1.472,3.729c-0.492,1.272-0.818,2.62-1.236,3.953
									c-0.197,0.67-0.395,1.344-0.593,2.018l-0.43,2.059c-0.261,1.377-0.61,2.742-0.781,4.114
									c-0.161,1.376-0.32,2.735-0.477,4.067c-0.095,0.665-0.123,1.327-0.138,1.981c-0.022,0.654-0.044,1.299-0.064,1.935
									c-0.024,1.27-0.124,2.502-0.025,3.673c0.111,4.706,0.763,8.495,1.038,10.581c0.451,1.058,0.844,2.19,1.208,3.363
									c0.175,0.589,0.352,1.184,0.529,1.783c0.214,0.589,0.428,1.182,0.642,1.773c0.425,1.186,0.846,2.369,1.283,3.503
									c0.515,1.104,1.064,2.152,1.629,3.103l-0.341-0.33c0.28,0.522,0.692,1.364,1.21,2.442c0.599,1.039,1.328,2.303,2.146,3.719
									c0.765,1.45,1.871,2.894,2.956,4.46c0.57,0.764,1.068,1.608,1.737,2.345c0.646,0.754,1.298,1.518,1.952,2.282
									c1.259,1.57,2.766,2.943,4.182,4.29c1.371,1.395,2.907,2.5,4.264,3.554c0.688,0.514,1.318,1.036,1.961,1.454
									c0.654,0.402,1.263,0.777,1.818,1.118c1.115,0.675,2.021,1.2,2.642,1.535l-0.599-0.481c0.275,0.137,0.53,0.264,0.769,0.381
									c0.247,0.104,0.476,0.2,0.688,0.289c0.423,0.184,0.778,0.35,1.086,0.506c0.614,0.313,1.036,0.586,1.422,0.865
									c0.777,0.548,1.374,1.194,3.198,1.947c-0.097-0.467,0.896-0.441,2.088-0.255c0.597,0.092,1.243,0.231,1.839,0.364
									c0.609,0.09,1.165,0.188,1.556,0.271l-0.104,0.156c2.377,0.526,7.846,0.949,11.773,0.814l-0.171,0.438
									c3.317-0.127,9.471-0.696,11.783-1.252c1.354-0.135,2.838-0.533,4.465-0.895c0.807-0.201,1.667-0.351,2.507-0.628
									c0.836-0.293,1.694-0.593,2.564-0.897c0.861-0.333,1.771-0.605,2.613-1.03c0.844-0.421,1.688-0.858,2.522-1.311
									c0.82-0.474,1.692-0.869,2.43-1.446c0.757-0.549,1.492-1.11,2.197-1.68c0,0,1.153-0.387,2.299-0.831
									c1.103-0.512,2.204-1.023,2.204-1.023l0.45-0.545c0,0-0.251-1.038-0.824-2.496c-0.57-1.46-1.479-3.325-2.7-5.054
									c-1.23-1.747-2.731-3.352-4.398-4.406c-1.659-1.067-3.43-1.635-5.156-1.224l-0.197-0.413c0,0-0.23,0.218-0.461,0.436
									c-0.22,0.234-0.495,0.384-0.488,0.395c-1.374,0.652-1.657,1.478-1.817,1.05l1.731-1.104
									c-1.327,0.733-0.586-0.048-0.267-0.558c-0.541,0.307-1.069,0.598-1.548,0.761c-0.146,0.305,0.277,0.032,0.523-0.019
									c-0.277,0.302-0.614,0.668-0.962,1.046c-0.183,0.182-0.368,0.372-0.579,0.516c-0.22,0.128-0.45,0.234-0.691,0.303
									c-1.361,0.674-0.441-0.584-1.994,0.198c-8.362,3.781-17.584,3.61-26.056,0.376c-0.127-0.238,0.104-0.152,0.379-0.143
									c-0.328-0.094-0.657-0.175-0.973-0.279c-0.306-0.136-0.607-0.269-0.906-0.4c-0.599-0.265-1.186-0.523-1.765-0.779
									c-1.144-0.554-2.182-1.255-3.34-1.793c-0.469-0.566-0.445-0.93-0.506-1.197c0.027,0.139-0.655-0.306-1.725-1.034
									c-0.562-0.327-1.096-0.897-1.728-1.44c-0.312-0.277-0.636-0.565-0.965-0.858c-0.336-0.288-0.675-0.585-0.962-0.945
									c-0.609-0.681-1.223-1.366-1.8-2.012c-0.306-0.309-0.557-0.647-0.781-0.983c-0.233-0.328-0.455-0.64-0.66-0.928
									C1801.856,1162.752,1801.285,1161.967,1801.311,1161.88z"/>
							</g>
						</g>
					</g>
				</g>
			</g>
			<defs>
				
					<filter id="Adobe_OpacityMaskFilter" filterUnits="userSpaceOnUse" x="1773.819" y="1079.424" width="112.912" height="119.004">
					
						<feColorMatrix  type="matrix" values="-1 0 0 0 1  0 -1 0 0 1  0 0 -1 0 1  0 0 0 1 0" color-interpolation-filters="sRGB" result="source"/>
				</filter>
			</defs>
			<mask maskUnits="userSpaceOnUse" x="1773.819" y="1079.424" width="112.912" height="119.004" id="SVGID_3_">
				<g filter="url(#Adobe_OpacityMaskFilter)">
					
						<image overflow="visible" width="118" height="124" xlink:href="E7D60CA9E039E9D1.jpg"  transform="matrix(1 0 0 1 1771.2129 1076.6406)">
					</image>
				</g>
			</mask>
			<g opacity="0.75" mask="url(#SVGID_3_)">
				<g>
					<g>
						<g>
							<g>
								<path fill="#FFFFFF" d="M1852.6,1171.914c-0.9,0.101-1.858,0.917-2.843,1.581
									C1850.763,1173.32,1851.622,1172.779,1852.6,1171.914z"/>
								<path fill="#FFFFFF" d="M1849.731,1173.5l-0.012,0.015c0.015-0.008,0.024-0.014,0.037-0.02
									C1849.746,1173.497,1849.739,1173.498,1849.731,1173.5z"/>
								<path fill="#FFFFFF" d="M1868.62,1185.64c0.322-0.347,0.689-0.743,1.062-1.145
									C1869.31,1184.862,1868.939,1185.243,1868.62,1185.64z"/>
								<path fill="#FFFFFF" d="M1801.311,1161.88l-0.765,0.269c-1.448-2.485,0.367-1.188-1.123-3.354
									c-1.419-0.454-1.786-3.994-2.531-4.671c0.092-0.013-0.313-1.25,0.049-1.283c-0.722-0.179-0.61-1.202-0.921-1.964
									c-0.237-0.244-0.124,0.261-0.248,0.531l-0.678-1.789c0.004-0.77,0.311-1.019,0.578-0.262c-0.066-0.3-0.148-0.67-0.244-1.104
									c-0.09-0.435-0.122-0.947-0.201-1.504c-0.124-1.121-0.397-2.441-0.396-3.94c-0.039-0.744-0.079-1.524-0.121-2.333
									c0.032-0.808,0.066-1.644,0.102-2.498c0.013-0.427,0.024-0.858,0.038-1.293c0.055-0.431,0.11-0.865,0.166-1.302
									c0.108-0.872,0.218-1.753,0.327-2.635c0.419-1.722,0.646-3.492,1.228-5.085c0.266-0.802,0.438-1.621,0.739-2.359
									c0.298-0.739,0.585-1.455,0.86-2.139c1.154-2.703,2.309-4.776,2.964-5.858c-0.74,0.311-1.352,1.775-2.208,2.013
									c0.062-0.358,0.159-0.65,0.265-0.896c0.13-0.23,0.272-0.414,0.396-0.578c0.252-0.33,0.445-0.577,0.427-0.948
									c0.602,0.062,1.054-0.532,1.533-1.187c0.521-0.618,1.146-1.24,1.876-1.305l-0.246-0.686l0.698-0.29
									c0.355-0.66,0.757-1.066,1.02-1.435c0.273-0.36,0.472-0.621,0.618-0.815c0.294-0.39,0.385-0.509,0.479-0.594
									c0.094-0.086,0.19-0.138,0.492-0.401c0.304-0.261,0.896-0.632,1.895-1.448c1.064-1.067,1.884-1.783,2.547-2.481
									c0.336-0.343,0.646-0.655,0.968-0.928c0.331-0.254,0.704-0.409,1.106-0.541c-0.219,0.107-0.999,0.09-0.383-0.409
									c0.375,0.419,1.668-1.327,2.244-1.032c0.679-0.341,2.999-1.204,1.959-1.58c0.269,0.104,0.913-0.071,1.379-0.071
									c0.467,0.001,0.713,0.056,0.134,0.379c0.722-0.172,1.436-0.262,1.902-0.567l-0.971,0.063
									c1.196-0.388,2.145-0.604,3.011-0.643c0.855-0.094,1.576-0.258,2.346-0.732l-0.962-0.124
									c0.375-0.068,0.729-0.186,1.072-0.199c0.344-0.019,0.666-0.025,0.961-0.009c0.589,0.035,1.065,0.17,1.374,0.512
									l-1.512,0.327c2.457-0.26,3.931-0.181,6.046-0.46c0.002-0.025-0.74-0.091-0.741-0.076c0.341-0.109,0.854-0.109,1.506-0.1
									c0.656,0.015,1.445,0.033,2.324,0.053c0.874,0.135,1.837,0.282,2.843,0.437c0.253,0.043,0.514,0.066,0.769,0.125
									c0.252,0.069,0.505,0.141,0.76,0.212c0.515,0.139,1.033,0.278,1.553,0.419c1.065,0.218,2.048,0.676,3.027,1.027
									c0.492,0.178,0.973,0.353,1.436,0.521c0.445,0.214,0.874,0.421,1.281,0.617c0.819,0.39,1.568,0.723,2.203,0.978
									c0.595,0.319,1.075,0.557,1.41,0.667l-0.656-1.218l2.152,1.043c-0.23-0.182-2.012,0.783-2.07,0.504
									c0.489,0.36,1.236,0.91,2.176,1.602c0.854,0.807,1.925,1.73,3.074,2.815c0.531,0.591,1.09,1.213,1.668,1.856
									c0.292,0.319,0.59,0.645,0.892,0.975c0.285,0.345,0.537,0.727,0.813,1.094c0.549,0.739,1.109,1.495,1.676,2.259
									c0.511,0.802,0.979,1.645,1.479,2.465l0.744,1.234c0.203,0.436,0.406,0.869,0.607,1.301
									c0.405,0.862,0.807,1.714,1.198,2.547c0.309,0.869,0.611,1.719,0.902,2.537c0.147,0.409,0.293,0.811,0.435,1.203
									c0.116,0.4,0.203,0.802,0.303,1.188c0.889,3.065,1.083,5.59,1.222,6.737c-0.143,1.895-0.859,0.429-0.939,0.426
									c0.363,2.208,0.662,0.908,0.757,2.825c-0.062,0.527-0.452-0.087-0.556-0.37c0.128,0.828,0.011,1.603,0.246,1.66
									c0.166-1.05,0.87-0.635,1.301-1.106c0,0,0.009,0.157,0.021,0.393c0.02,0.236,0.032,0.551,0.007,0.867
									c-0.026,0.63-0.053,1.26-0.053,1.26l-0.441-0.113c-0.012,0.278,0.286,0.633,0.555,1.237
									c0.134,0.303,0.261,0.668,0.339,1.115c0.078,0.446,0.021,0.968-0.093,1.585c-0.178,1.041-0.245,2.118-0.449,3.184
									c-0.226,1.062-0.435,2.136-0.635,3.214c-0.229,1.07-0.591,2.104-0.872,3.15c-0.254,1.059-0.688,2.038-1.094,3.003
									c-0.224-0.158-0.053-1.028,0.123-1.886c-0.219,0.51-0.466,1.32-0.829,1.726c0.801-0.763-0.339,1.737,0.128,1.083
									c-0.02,0.405-0.044,0.828-0.149,1.227c-0.115,0.394-0.257,0.789-0.416,1.182c-0.319,0.787-0.709,1.568-1.099,2.334
									c-0.453,0.728-0.938,1.42-1.336,2.114c-0.424,0.677-0.692,1.409-0.998,2.024c0.325,0.368,2.821,3.977,4.959,8.078
									c1.111,2.061,1.994,4.083,2.729,5.744c0.721,1.646,1.231,2.851,1.44,3.051c-0.855,0.861-1.713,1.71-2.037,1.904
									c0.403-0.021,2.168-1.649,2.93-2.68l-0.305-0.579c1.808-2.258,0.802-0.195,2.543-2.43c0.244,0.101-0.017,0.683-0.521,1.473
									c-0.531,0.767-1.38,1.677-2.161,2.538c0.766-0.719,1.532-1.44,2.183-2.053c0.591-0.665,1.003-1.282,1.052-1.789
									c1.378-1.417,0.349,0.567,1.989-1.186c0.991-1.406,1.714-3.574,3.005-5.051l0.059,0.076
									c1.545-1.837,2.082-3.606,2.717-5.234c0.285-0.829,0.639-1.614,0.915-2.476c0.297-0.854,0.66-1.729,1.167-2.676
									l-0.008,0.489c0.4-0.653,0.818-1.702,1.2-2.912c0.339-1.225,0.714-2.59,1.236-3.857c-0.312,0.722-0.85,1.263-0.464-0.312
									c0.625-1.443,0.787-2.743,1.049-3.913c0.226-1.178,0.483-2.244,0.833-3.339l-0.266-2.219
									c0.132-1.332,0.401-3.155,0.364-5.359c0.006-1.101,0.012-2.294,0.019-3.564c-0.07-1.267-0.194-2.609-0.31-4.013
									c-0.573-5.59-1.92-12.136-4.512-18.261c-2.531-6.144-6.125-11.798-9.67-16.202c-3.68-4.316-7.204-7.472-9.365-9.133
									l0.39,0.199c-0.837-0.62-1.729-1.28-2.67-1.977c-0.476-0.341-0.946-0.713-1.46-1.049c-0.527-0.319-1.067-0.646-1.618-0.979
									c-1.109-0.651-2.237-1.372-3.459-2.019c-1.254-0.592-2.547-1.201-3.872-1.825c-5.389-2.298-11.705-3.956-18.181-4.342
									c-1.62-0.038-3.242-0.135-4.854-0.08c-1.611,0.111-3.216,0.237-4.798,0.377c-1.572,0.235-3.119,0.55-4.641,0.837
									c-0.379,0.078-0.76,0.14-1.132,0.232c-0.368,0.108-0.735,0.216-1.101,0.322c-0.728,0.22-1.449,0.437-2.163,0.651
									c-0.71,0.224-1.419,0.424-2.102,0.668c-0.669,0.281-1.329,0.559-1.979,0.832c-0.648,0.279-1.286,0.554-1.913,0.824
									s-1.244,0.534-1.808,0.875c-2.289,1.291-4.43,2.439-6.105,3.785c-0.616,0.27-1.267,0.61-1.93,0.993
									c-0.328,0.197-0.664,0.398-1.002,0.603c-0.331,0.215-0.633,0.471-0.949,0.712c-1.243,0.997-2.496,2.003-3.577,2.871
									c1.308-0.853,1.135-0.247,0.22,0.513c-2.937,2.953-2.947,3.138-2.972,3.319c-0.009,0.095-0.014,0.197-0.366,0.664
									c-0.38,0.443-0.992,1.344-2.233,3.017c-0.684,0.985-1.7,2.252-2.658,3.927c-0.505,0.82-1.05,1.708-1.629,2.651
									c-0.593,0.935-1.049,2.011-1.616,3.089c-0.272,0.545-0.551,1.102-0.833,1.668c-0.141,0.283-0.283,0.568-0.427,0.857
									c-0.118,0.297-0.238,0.598-0.359,0.899c-0.478,1.212-0.971,2.459-1.472,3.729c-0.492,1.272-0.818,2.62-1.236,3.953
									c-0.197,0.67-0.395,1.344-0.593,2.018l-0.43,2.059c-0.261,1.377-0.61,2.742-0.781,4.114
									c-0.161,1.376-0.32,2.735-0.477,4.067c-0.095,0.665-0.123,1.327-0.138,1.981c-0.022,0.654-0.044,1.299-0.064,1.935
									c-0.024,1.27-0.124,2.502-0.025,3.673c0.111,4.706,0.763,8.495,1.038,10.581c0.451,1.058,0.844,2.19,1.208,3.363
									c0.175,0.589,0.352,1.184,0.529,1.783c0.214,0.589,0.428,1.182,0.642,1.773c0.425,1.186,0.846,2.369,1.283,3.503
									c0.515,1.104,1.064,2.152,1.629,3.103l-0.341-0.33c0.28,0.522,0.692,1.364,1.21,2.442c0.599,1.039,1.328,2.303,2.146,3.719
									c0.765,1.45,1.871,2.894,2.956,4.46c0.57,0.764,1.068,1.608,1.737,2.345c0.646,0.754,1.298,1.518,1.952,2.282
									c1.259,1.57,2.766,2.943,4.182,4.29c1.371,1.395,2.907,2.5,4.264,3.554c0.688,0.514,1.318,1.036,1.961,1.454
									c0.654,0.402,1.263,0.777,1.818,1.118c1.115,0.675,2.021,1.2,2.642,1.535l-0.599-0.481c0.275,0.137,0.53,0.264,0.769,0.381
									c0.247,0.104,0.476,0.2,0.688,0.289c0.423,0.184,0.778,0.35,1.086,0.506c0.614,0.313,1.036,0.586,1.422,0.865
									c0.777,0.548,1.374,1.194,3.198,1.947c-0.097-0.467,0.896-0.441,2.088-0.255c0.597,0.092,1.243,0.231,1.839,0.364
									c0.609,0.09,1.165,0.188,1.556,0.271l-0.104,0.156c2.377,0.526,7.846,0.949,11.773,0.814l-0.171,0.438
									c3.317-0.127,9.471-0.696,11.783-1.252c1.354-0.135,2.838-0.533,4.465-0.895c0.807-0.201,1.667-0.351,2.507-0.628
									c0.836-0.293,1.694-0.593,2.564-0.897c0.861-0.333,1.771-0.605,2.613-1.03c0.844-0.421,1.688-0.858,2.522-1.311
									c0.82-0.474,1.692-0.869,2.43-1.446c0.757-0.549,1.492-1.11,2.197-1.68c0,0,1.153-0.387,2.299-0.831
									c1.103-0.512,2.204-1.023,2.204-1.023l0.45-0.545c0,0-0.251-1.038-0.824-2.496c-0.57-1.46-1.479-3.325-2.7-5.054
									c-1.23-1.747-2.731-3.352-4.398-4.406c-1.659-1.067-3.43-1.635-5.156-1.224l-0.197-0.413c0,0-0.23,0.218-0.461,0.436
									c-0.22,0.234-0.495,0.384-0.488,0.395c-1.374,0.652-1.657,1.478-1.817,1.05l1.731-1.104
									c-1.327,0.733-0.586-0.048-0.267-0.558c-0.541,0.307-1.069,0.598-1.548,0.761c-0.146,0.305,0.277,0.032,0.523-0.019
									c-0.277,0.302-0.614,0.668-0.962,1.046c-0.183,0.182-0.368,0.372-0.579,0.516c-0.22,0.128-0.45,0.234-0.691,0.303
									c-1.361,0.674-0.441-0.584-1.994,0.198c-8.362,3.781-17.584,3.61-26.056,0.376c-0.127-0.238,0.104-0.152,0.379-0.143
									c-0.328-0.094-0.657-0.175-0.973-0.279c-0.306-0.136-0.607-0.269-0.906-0.4c-0.599-0.265-1.186-0.523-1.765-0.779
									c-1.144-0.554-2.182-1.255-3.34-1.793c-0.469-0.566-0.445-0.93-0.506-1.197c0.027,0.139-0.655-0.306-1.725-1.034
									c-0.562-0.327-1.096-0.897-1.728-1.44c-0.312-0.277-0.636-0.565-0.965-0.858c-0.336-0.288-0.675-0.585-0.962-0.945
									c-0.609-0.681-1.223-1.366-1.8-2.012c-0.306-0.309-0.557-0.647-0.781-0.983c-0.233-0.328-0.455-0.64-0.66-0.928
									C1801.856,1162.752,1801.285,1161.967,1801.311,1161.88z"/>
							</g>
						</g>
					</g>
				</g>
			</g>
		</g>
	</g>
	<g>
		
			<image overflow="visible" opacity="0.75" width="114" height="136" xlink:href="E7D60CA9E039E9D7.png"  transform="matrix(1 0 0 1 1793.2129 1087.6406)">
		</image>
		<g>
			<g>
				<g>
					<g>
						<g>
							<path fill="#3F3B3C" d="M1874.671,1184.805c0.038-0.017,0.082-0.04,0.138-0.08
								C1874.746,1184.748,1874.702,1184.775,1874.671,1184.805z"/>
							<path fill="#3F3B3C" d="M1868.918,1176.093l0.136,0.046C1868.995,1176.084,1868.955,1176.078,1868.918,1176.093z"/>
							<path fill="#3F3B3C" d="M1878.257,1189.913c-0.017,0.002-0.023,0.008-0.038,0.012c0.056,0.079,0.131,0.186,0.254,0.358
								L1878.257,1189.913z"/>
							<path fill="#3F3B3C" d="M1855.855,1158.147l0.091,0.105C1855.909,1158.203,1855.896,1158.161,1855.855,1158.147z"/>
							<path fill="#3F3B3C" d="M1863.53,1168.836c-0.076,0.01-0.139-0.029-0.196-0.067
								C1863.378,1168.841,1863.432,1168.885,1863.53,1168.836z"/>
							<path fill="#3F3B3C" d="M1877.691,1194.604l0.066-0.282C1877.684,1194.386,1877.643,1194.499,1877.691,1194.604z"/>
							<path fill="#3F3B3C" d="M1882.385,1198.931c0.009-0.015,0.02-0.024,0.029-0.046
								C1882.392,1198.891,1882.386,1198.909,1882.385,1198.931z"/>
							<path fill="#3F3B3C" d="M1881.546,1196.434c-0.05-0.028-0.12-0.051-0.189-0.074
								C1881.409,1196.413,1881.469,1196.487,1881.546,1196.434z"/>
							<path fill="#3F3B3C" d="M1881.259,1196.329l0.098,0.03C1881.32,1196.327,1881.289,1196.304,1881.259,1196.329z"/>
							<path fill="#3F3B3C" d="M1804.324,1096.278c-0.106-0.147-0.339-0.158-0.553-0.195L1804.324,1096.278z"/>
							<path fill="#3F3B3C" d="M1843.332,1142.464l0.098-0.028C1843.383,1142.426,1843.354,1142.441,1843.332,1142.464z"/>
							<path fill="#3F3B3C" d="M1802.638,1097.354l-0.045-0.13C1802.594,1097.284,1802.61,1097.324,1802.638,1097.354z"/>
							<path fill="#3F3B3C" d="M1875.112,1192.387c-0.288-0.002-0.315-0.461-0.483-0.321
								C1874.778,1192.193,1874.819,1192.513,1875.112,1192.387z"/>
							<path fill="#3F3B3C" d="M1834.09,1144.487l-0.085-0.087C1834.039,1144.447,1834.066,1144.473,1834.09,1144.487z"/>
							<path fill="#3F3B3C" d="M1802.638,1097.354l0.052,0.149c0.024-0.036,0.04-0.07,0.059-0.105
								C1802.702,1097.393,1802.664,1097.379,1802.638,1097.354z"/>
							<path fill="#3F3B3C" d="M1830.258,1126.159l0.004,0.006c0.021,0.003,0.035,0.005,0.058,0.008L1830.258,1126.159z"/>
							<path fill="#3F3B3C" d="M1829.843,1125.069c0.067,0.046,0.133,0.09,0.205,0.138
								C1829.987,1125.096,1829.917,1125.068,1829.843,1125.069z"/>
							<path fill="#3F3B3C" d="M1803.771,1096.083l-0.316-0.111C1803.539,1096.035,1803.652,1096.062,1803.771,1096.083z"/>
							<path fill="#3F3B3C" d="M1822.069,1115.987c0.029,0.025,0.059,0.049,0.091,0.067
								C1822.133,1116.017,1822.103,1115.994,1822.069,1115.987z"/>
							<path fill="#3F3B3C" d="M1863.958,1169.573c0.001,0.035,0.016,0.071,0.022,0.106
								C1864.027,1169.655,1864.053,1169.627,1863.958,1169.573z"/>
							<polygon fill="#3F3B3C" points="1854.129,1166.907 1854.127,1166.904 1854.123,1166.908 							"/>
							<path fill="#3F3B3C" d="M1854.622,1167.074c-0.048-0.139-0.298-0.189-0.493-0.167
								C1854.216,1167.015,1854.335,1167.087,1854.622,1167.074z"/>
							<path fill="#3F3B3C" d="M1853.623,1166.1c0.003,0.02,0.006,0.034,0.01,0.058
								C1853.635,1166.132,1853.632,1166.114,1853.623,1166.1z"/>
							<path fill="#3F3B3C" d="M1858.857,1173.274l0.019-0.016c-0.008,0.004-0.013,0.006-0.02,0.01L1858.857,1173.274z"/>
							<path fill="#3F3B3C" d="M1857.724,1171.932c0.015-0.052,0.014-0.106,0.002-0.157
								C1857.71,1171.825,1857.706,1171.88,1857.724,1171.932z"/>
							<polygon fill="#3F3B3C" points="1850.379,1163.098 1850.388,1163.093 1850.38,1163.088 							"/>
							<path fill="#3F3B3C" d="M1838.676,1151.27c1.148,1.209,2.855,2.597,3.791,3.96c0.584-0.012,0.926,0.385,1.336,0.728
								l-0.441,0.43l0.428,0.217c-0.031,0.255-0.301-0.189-0.283,0.201l0.4-0.111c-0.148,0.165,0.596,0.966-0.209,0.672l1.068,1.324
								c0.223,0.304,0.536-0.15,0.68,0.268c-0.086,0.179-0.189-0.039-0.339,0.126c0.433,1.257,1.831,0.374,2.348,1.455l-0.126-0.025
								c0.252,0.051,0.473,0.357,0.543,0.307c0.387-0.506-0.392,0.048-0.331-0.458c0.424-0.303,0.496,0.168,0.789-0.099
								c0.025,0.33,0.355,0.269,0.529,0.435c0.001,0.52,0.548,0.826,0.423,1.32c0.252,0.051,0.789-0.099,1.073,0.22
								c-0.124,0.494-0.348,0.188-0.204,0.608l0.277-0.139c0.178,0.295,0.079,0.307-0.04,0.386c0.22,0.292,0.514-0.024,0.65,0.453
								l-0.389-0.014c0.303,0.19,0.349,0.331,0.626,0.713c-0.142,0.102-0.252-0.053-0.3-0.191c-0.187,0.479,0.426,0.218,0.475,0.356
								c0.077-0.113-0.081-0.404,0.25-0.468c0.104,0.217,0.632,0.13,0.46,0.484l-0.387-0.016c0.489,0.231,0.457-0.035,0.719,0.474
								c-0.037-0.009-0.087,0.05-0.143,0.08c0.522,0.032,0.541,0.613,0.849,1.038l-0.126-0.026c0.213,0.1,0.495,0.021,0.551,0.123
								c-0.053-0.342,0.067-0.334,0.275-0.538c-0.14,0.621,0.828,0.105,1.004,0.792c-0.141,0.101-0.401,0.111-0.37-0.142
								c-0.536,0.15-0.891,0.402-1.323,0.248c0.245,0.115,0.481,0.293,0.276,0.382l0.417-0.24c0.104,0.107,0.154,0.217,0.225,0.303
								c0.273-0.139,0.194-0.542,0.563-0.398c0.362,0.203-0.25,0.466-0.046,0.378c0.481,0.295,0.535-0.149,0.735,0.347
								c-0.062-0.015-0.189-0.04-0.183-0.103c0.082,0.405,0.634,0.647,0.256,1.092c-0.134,0.038-0.273,0.138-0.323-0.001
								l0.071-0.051c-0.576-0.052,0.299,0.191-0.181,0.418c0.222-0.216,0.491,0.229,0.593,0.446l0.228-0.278
								c1.302-0.058-0.565,0.404,0.021,0.914c0.489,0.229-0.04-0.204,0.339-0.127c0.159,0.293-0.007,0.585,0.413,0.863
								c-0.023,0.191,0.003,0.521-0.288,0.786c0.307,0.127,0.42,0.801,0.821,0.689c-0.057-0.596-0.632-0.129-0.602-0.903l0.4-0.113
								c0.237,0.327,0.713,0.607,0.78,0.911c0.022-0.091,0.083-0.172,0.169-0.196c0.474,0.357,0.877,0.244,1.138,0.753
								c-0.228,0.278-0.386-0.015-0.56-0.181c0.008,0.457,0.221,0.307,0.483,0.814c-0.22,0.216-0.222-0.306-0.496-0.167l0.465,0.422
								c-0.017,0.01-0.031,0.025-0.049,0.039c0.455-0.253,0.263,0.396,0.619,0.595c0.562,0.701,1.184,0.374,1.815,0.503
								c-0.023,0.191-0.101,0.305-0.236,0.342c0.039-0.315-0.075-0.172-0.228-0.148c0.231,0.203,0.025,0.833-0.241,0.831
								c0.418,0.282,0.101-0.305,0.409-0.176l0.389,0.534c0.156-0.227,0.054-0.442,0.425-0.303c0.236,0.179,0.283,0.319,0.506,0.624
								c-0.134,0.038-0.235,0.343-0.4,0.112c0.038,0.203,0.207,0.433,0.474,0.357c-0.073-0.47,0.6,0.384,0.724-0.111l0.073,0.47
								c-0.055-0.076-0.197,0.025-0.244-0.114c-0.236,0.341,0.3,0.19,0.419,0.279c0.031,0.161,0.241,0.476,0.141,0.597
								c0.168,0.032,0.3,0.334,0.18,0.509c0.182,0.102,0.211-0.151,0.347-0.188l0.388,0.533c-0.149,0.166-0.591,0.594-0.717,0.568
								c0.315,0.065,0.561-0.339,0.781-0.033c-0.466,0.099,0.057,0.594-0.534,0.67c-0.108,0.365,0.287,0.836,0.588,1.028
								c0.395-0.049-0.082-0.405,0.203-0.607c0.694,0.662,1.475,0.105,1.784,0.754l-0.039-0.202c0.426,0.217,0.362,0.205,0.75,0.219
								c-0.41,0.176-0.589,1.113-0.067,1.612c0.206-0.09,0.068-0.571,0.408-0.696l0.349,0.33c-0.005,0.049-0.094,0.053-0.175,0.04
								c0.386,0.235,0.062,0.97,0.532,0.748l-0.218,0.733l0.102-0.303c0.202-0.088,0.553,0.244,0.679,0.269
								c0.491,0.23,0.459,0.485,0.414,0.865c0.084-0.178,0.266-0.597,0.559-0.34c-0.546,0.437,0.304,0.79,0.016,1.008
								c0.105,0.115,0.108,0.466,0.345,0.299l-0.354,0.253c0.494-0.354,0.828,0.104,1.184,0.373c-0.701,0.441,0.348,0.33-0.114,0.95
								c0.486-0.289,0.654,0.459,1.072,0.219c0.23,0.243-0.195,0.545-0.28,0.723l0.26-0.011c-0.099,0.296,0.264,0.808,0.357,1.21
								l0.601-0.04l-0.094,0.24c0.133-0.036,0.37,0.142,0.401-0.112l0.095,0.163c0.429-0.326,0.28,0.111,0.694,0.259
								c-0.013,0.122-0.127,0.186-0.234,0.167c0.113,0.148-0.152,0.261-0.229,0.453c0.024-0.189,1.174-0.084,1.047-0.629
								c0.149-0.166,0.459-0.038,0.499,0.166l-0.307,0.392l0.535-0.15c0.236,0.179,0.073,0.47,0.176,0.686
								c-0.173-0.166-1.057,0.174-0.66,0.645c-0.253-0.212-0.562-0.165-0.746-0.232c0.065,0.111,0.069,0.19-0.216,0.165
								c0.419,0.28,0.332-0.062,0.679,0.27c-0.353,0.252-0.377,0.443-0.232,0.86l0.052-0.442c0.051-0.021,0.094-0.029,0.129-0.027
								c-0.037-0.121-0.006-0.189,0.107-0.313c0.056,0.075,0.765,0.091,0.609,0.318c0.225-0.798,0.932,0.321,1.056-0.173
								c0.133-0.038,0.361,0.205,0.214,0.368c-0.505-0.104-0.195,0.544-0.472,0.685c0.19,0.036,0.054-0.446,0.307-0.394
								c0.172,0.166,0.073,0.47,0.05,0.658l-0.125-0.025l0.078,0.407c0.206-0.089,0.063-0.507,0.363-0.315
								c-0.016,0.127,0.285,0.318,0.144,0.42c-0.333,0.062-0.567,0.402-0.805,0.224c0.174,0.167,0.69,0.726,0.812,0.232l0.168,0.23
								c0.03-0.255-0.028-0.851,0.377-0.443l-0.071,0.05l0.506,0.103l-0.066,0.276c0.083-0.073,0.2-0.089,0.287,0.03
								c-0.077,0.112-0.03,0.253-0.172,0.354c0.285,0.318,0.434,0.153,0.567,0.117c0.174,0.166,0.159,0.293-0.109,0.367
								c0.161,0.291,0.563,0.699,0.524,1.018c0.427,0.218,0.015-0.128,0.404-0.113c-0.353,0.771,0.682,1.309,1.204,1.805
								c0.392-0.566,0.181,0.104,0.731-0.173c-0.259,0.012,0.027,0.85-0.51,0.48l0.293,0.254c-0.119,0.431-0.608-0.319-0.749,0.301
								c0.286,0.319,1.026,0.081,1.152,0.627c-0.471,0.163,0.364,0.204-0.115,0.431c-0.197,0.024-0.245-0.116-0.363-0.204
								l-0.016,0.127c0.483,0.813,0.601-0.138,1.159,0.042c0.405,0.407-0.005,0.583-0.155,0.748
								c-0.015,0.126,0.223,0.305,0.412,0.345c-0.442-0.092-0.177-0.688,0.154-0.748c-0.257,0.531,0.499,0.687,0.761,0.675
								c-0.074-0.989-0.334-0.457-0.345-1.435c-0.197,0.024-0.559,0.34-0.694-0.143c0.366,0.075,0.195-0.184,0.205-0.295
								c-0.16,0.242-0.29-0.177-0.467-0.214c0.094-0.24,0.668-0.186,0.462-0.618l-0.56,0.34c-0.038-0.204,0.418-0.239,0.054-0.443
								c0.395-0.05,0.369-0.38,0.78-0.036c0.037-0.836-0.837-0.561-1.326-0.791c0.062,0.014,0.134-0.037,0.198-0.026
								c-0.198,0.026-0.31-0.127-0.429-0.215c-0.088-0.343,0.388,0.014,0.474-0.163l-0.34-0.395c0.01-0.021,0.017-0.031,0.027-0.04
								c-0.155-0.05-0.282-0.115-0.188-0.254c0.26-0.011,0.466-0.099,0.663-0.124l-0.694-0.142c0.203-0.088,0.004-0.584,0.369-0.379
								l-0.578-0.572l0.298-0.329c-0.183-0.102-0.253-0.052-0.148,0.162c-0.096-0.278-1.366-0.473-0.604-0.901
								c-0.678-0.269-0.711-0.536-1.365-0.995c0.685,0.206-0.028-0.85,0.511-0.479c-0.082-0.405-0.498-0.167-0.736-0.346
								c-0.024-0.329,0.385-0.505,0.693-0.377l-0.371-0.143l0.071-0.05l-0.38-0.078c-0.018-0.393,0.299-0.327,0.141-0.62
								l-0.347,0.188l0.037-0.315c-0.086,0.177-0.268,0.075-0.44-0.091l0.07-0.051l-0.239-0.178
								c0.362,0.073-0.101-0.259,0.198-0.331c-0.141-0.204-0.148-0.205-0.483-0.508l-0.156,0.228
								c-0.545-0.308,0.29-0.267,0.013-0.647l-0.219,0.215c-0.027-0.85-0.948-0.714-1.007-1.311c0.235,0.179,0.465-0.101,0.394-0.05
								c-0.357-0.267-0.736-0.865-1.304-0.981c0.242-0.405,0.32-0.519,0.186-1.001c-0.23-0.243-0.294-0.255-0.562-0.179
								c-0.069-0.359-0.648-0.672-0.409-0.886c-0.245,0.102-0.143-0.259-0.423-0.262l0.079-0.112l-0.22,0.214
								c0.17-0.875-0.907-0.512-0.81-1.335l0.127,0.026l-0.247-0.115c0.08-0.113,0.206-0.088,0.348-0.188l-0.666-0.916l-0.039,0.317
								c-0.173-0.166-0.504-0.105-0.529-0.435c0.64,0.065-0.223-0.304,0.006-0.583l0.246,0.114c-0.23-0.24-0.23-0.24-0.452-0.026
								c-0.353-0.269,0.268-0.596-0.237-0.698l0.167,0.229c-0.087,0.177-0.409,0.177-0.521,0.024
								c0.008-0.064,0.029-0.254,0.149-0.166c-0.303-0.19-0.501-0.685-0.688-0.725c-0.041-0.203,0.165-0.292,0.29-0.266
								c-0.663-0.396-0.159-0.293-0.823-0.689l0.143-0.101l-0.317-0.063l0.062-0.508l-0.095,0.24
								c-0.174-0.166-0.361-0.205-0.458-0.484l0.269-0.073c-0.531-0.434-0.153-0.876-0.834-1.146
								c0.009-0.063,0.135-0.038,0.198-0.023c-0.686-0.207,0.075-0.637-0.681-0.791c0.09-0.025,0.132-0.144,0.203-0.171
								l-0.299-0.106l0.282-0.202l-0.536,0.149l0.173-0.354l-0.196,0.023c0.337-0.644-0.311-0.647-0.172-1.269l-0.298,0.328
								c-1.333-0.207-1.04-2.097-2.123-2.772l0.282-0.201l-0.63-0.131c0.046-0.38,0.331-0.061,0.417-0.238
								c-0.483-0.294-0.537,0.149-1.003-0.271c-0.018-0.394,0.268-0.074,0.458-0.036c-0.498-0.344-1.185-0.891-1.293-1.333
								c-0.042,0.022-0.105,0.041-0.107,0.07c-0.365-0.203-0.564-0.699-0.849-1.018c0.13-0.092,0.217-0.026,0.31,0.036
								c-0.08-0.133-0.127-0.365-0.335-0.365l0.333-0.063c-0.159-0.292-0.768-0.611-0.539-0.89c-0.08,0.115-0.293,0.267-0.458,0.036
								c0.313-0.455-0.657-0.46-0.721-0.991c0.132-0.038,0.361,0.205,0.308,0.127c-0.033-0.265-0.354-0.268-0.608-0.319l0.205-0.087
								l-0.895-0.639c0.313-0.455-0.688-0.727-0.342-0.914c-0.223-0.306,0.018,0.395-0.33,0.061c0.093-0.238-0.355-0.268-0.074-0.47
								l0.063,0.014l-0.23-0.242l0.396-0.049c-0.237-0.178-0.633-0.129-0.844,0.022c-0.024-0.33-0.388-0.534-0.226-0.825
								l0.128,0.027c-0.586-0.511-0.068-1.574-0.897-1.678c0.01-0.065,0.079-0.115,0.135-0.04l-0.279-0.381l0.27-0.073l-0.798-0.36
								l0.141-0.101c-0.27-0.446-0.847-1.018-1.306-1.502l0.127,0.025c-0.664-0.396-0.312-0.648-0.793-0.941
								c0.047-0.014,0.072-0.012,0.092-0.003l-0.306-0.366l0.197-0.024c-0.512-0.04-0.257-1.092-0.365-0.724
								c-0.254-0.052-0.625-0.194-0.828-0.106c-0.342-0.393,0.094-0.239,0.005-0.582c-0.223-0.305-0.497-0.168-0.696-0.663
								l0.142-0.101c-0.174-0.167-0.363-0.204-0.593-0.446l0.126,0.025c-0.624-0.192-0.027-0.848-0.885-0.701
								c-0.034-0.266-0.39-0.533-0.105-0.736c-0.601-0.383-1.012-0.726-1.542-1.159c0.376-0.443-0.119-0.09-0.121-0.61l-0.219,0.215
								c-0.628-0.712-0.725-2.034-1.479-2.77l0.219-0.215l-0.393,0.048c-0.596-0.966-1.419-2.174-1.98-2.875
								c-0.31-0.128-0.876-0.243-1.084-0.676l0.063,0.012c-0.648-0.521-1.289-1.108-1.711-1.909c0.135-0.038,0.15-0.163,0.277-0.139
								c-0.396,0.05-0.341-0.394-0.453-0.547l-0.038,0.317c-0.385-0.014-0.395-0.471-0.302-0.711l-0.506-0.104
								c0.007-0.039,0.018-0.101,0.053-0.136l-0.17,0.047l0.18-0.419c-0.126-0.024-0.538-0.37-0.94-0.256
								c0.079-0.114-0.073-0.47,0.165-0.292l-0.823-1.208l0.031,0.268c-0.219,0.213-0.646-0.005-0.679-0.269
								c0.378,0.075,0.353-0.254,0.447-0.494c-0.252-0.051-0.102,0.303-0.298,0.328c-0.315-0.065-0.729-0.409-0.704-0.598
								l0.188,0.038c-0.3-0.191,0.014-0.646-0.215-0.89c-0.38-0.078-0.342-0.393-0.711-0.015c-0.356-0.269,0.172-0.354,0.124-0.495
								c-0.323,0-0.578-0.572-0.419-0.8c-0.748,0.301-0.517-1.08-1.076-0.741l0.062-0.507c-0.143,0.101-0.488,0.291-0.725,0.111
								c-0.025-0.329,0.25-0.469,0.337-0.645l-0.615,0.264c-0.446-1.65-2.102-2.964-2.736-4.654
								c-0.587-0.509-1.425-1.07-1.915-1.821l0.126,0.025l-0.421-0.801l0.176,0.687c-0.181-0.104-0.372-0.143-0.482-0.294
								c-0.403-0.927-0.967-2.142-1.977-2.869c-1.065-0.136,0.187-0.814-0.701-1.053c0.093,0.007,0.189-0.041,0.282-0.043
								c-0.695-0.468-1.068-0.726-1.911-1.075c0.629-0.391-0.341-0.396,0.005-0.583l-0.275,0.137
								c0.03-0.254-0.183-0.621,0.021-0.709l-0.513-0.04l0.219-0.217c-0.276-0.379-1.105-1.005-0.777-1.587
								c-1.091-0.613-2.138-2.126-2.962-3.334c-0.323-0.002-0.608-0.32-0.838-0.562l0.062-0.506c-0.301-0.192-0.884-0.183-0.9-0.575
								c0.034-0.024,0.066-0.034,0.097-0.03c-0.274-0.22-0.329-0.597-0.794-0.634c-0.222-0.305-0.302-0.712,0.035-0.836
								c-0.495,0.354-0.435-0.675-0.435-0.675s-11.021-15.967-16.552-17.564c-0.33,0.064-0.758-0.154-0.93,0.2
								c-0.301-0.192,0.013-0.646-0.261-0.509c0.135,0.483-0.693,0.377-0.699,0.962l-0.238-0.18
								c-0.203,0.089,0.436,0.153,0.09,0.342l0.486-0.289c0.082,0.235,0.071,0.409-0.024,0.593c0.309,0.033,0.987-0.335,1.061,0.282
								l-0.118-0.092c0.285,0.32-0.116,0.432-0.131,0.559l-0.056-0.076l0.008,0.457c-0.025-0.33-0.663-0.396-0.488-0.232
								c0.199,0.495,0.021-0.188,0.316,0.066c0.172,0.166-0.103,0.303-0.244,0.403l0.285,0.318
								c-0.212,0.152-0.167-0.229-0.268,0.076l0.553,0.244c-0.448,0.492,0.614,0.256,0.287,0.837
								c-0.363-0.203-0.15,0.166-0.354,0.252l0.625,0.714c-0.015,0.127-0.314-0.066-0.198,0.024
								c-0.028,0.253,0.31,0.127,0.366,0.205c-0.089,0.177,0.45,0.545,0.096,0.799c0.177,0.684,0.6-0.138,0.783,0.484
								c-0.156,0.229-0.349-0.33-0.394,0.049l0.467,0.422c-0.136,0.037-0.41,0.176-0.512-0.041c0.785,1.525,0.271,3.108,1.513,4.078
								c-0.109,0.367-0.263,0.012-0.521,0.023c1.026,0.601,0.447,1.65,1.072,2.363l0.213-0.15c0.202,1.535,1.577,2.466,2.254,3.838
								l0.03-0.253c0.323,0.002,0.553,0.243,0.798,0.36c-0.079,0.111-0.544,0.211-0.188,0.479c0.016-0.128-0.023-0.331,0.108-0.368
								c0.281,1.422,2.111,3.42,3.182,5.264c1.947,2.088,3.496,4.81,5.379,6.884c-0.284-0.318,0.329-0.581,0.416-0.238
								c-0.293,1.368,1.102,1.07,1.089,2.235c1.297,1.047,1.478,2.771,3.081,3.426l-0.221,0.216
								c0.033,0.264,0.237,0.178,0.411,0.343l-0.071,0.05c0.264,0.51,0.934,0.842,1.022,1.185l0.282-0.201
								c0.232,0.241-0.1,0.303,0.27,0.444l-0.141,0.102l0.506,0.104c-0.496,0.352,0.554,0.763,0.509,1.143
								c0.355,0.268,1.075,0.74,1.393,1.325c-0.166,0.291,0.341,0.914,0.541,1.41c0.688,0.727,1.662,1.771,2.375,2.826l0.292-0.266
								l0.229,0.241c-0.07,0.051-0.078,0.114-0.142,0.102c-0.187,0.48,0.587,0.508,0.539,0.89c0.172-0.354-0.103-0.216-0.214-0.369
								c-0.025-0.329,0.434-0.366,0.513,0.042l-0.071,0.049l0.317,0.064c-0.221,0.215-0.189,0.482-0.407,0.696
								c0.742,0.802,1.619,1.047,2.215,2.014c-0.339,0.125,0.576,0.574-0.028,0.771c0.6,0.385,0.304-0.389,0.825-0.414
								c0.111,0.153,0.363,0.204,0.213,0.369c-0.166,0.021-0.185,0.348-0.324,0.263l0.321,0.321
								c-0.01,0.063-0.136,0.037-0.198,0.023c0.847,0.498,0.724,1.513,1.512,1.936c0.206-0.087-0.158-0.293,0.047-0.382
								c0.861,0.371,0.161,0.813,0.889,1.222l-0.332,0.062c0.316,0.066,0.584-0.009,0.656,0.46
								c-0.229,0.277-0.442-0.091-0.693-0.142c0.166,0.229,0.687,0.727,0.796,0.357c0.302,0.191,0.137,0.483,0.178,0.686
								c0.07-0.05-0.018-0.394,0.233-0.341c0.137,0.481,0.59,1.03,0.92,1.487c-0.07,0.05-0.147,0.164-0.211,0.152
								C1838.846,1150.395,1838.209,1150.849,1838.676,1151.27z"/>
							<path fill="#3F3B3C" d="M1858.959,1173.485l-0.102-0.211c-0.061,0.049-0.136,0.097-0.269,0.068L1858.959,1173.485z"/>
							<path fill="#3F3B3C" d="M1852.35,1164.965c-0.04-0.005-0.077-0.011-0.126-0.004
								C1852.271,1164.994,1852.312,1164.983,1852.35,1164.965z"/>
							<path fill="#3F3B3C" d="M1850.224,1163.315c0.177,0.098,0.144-0.09,0.155-0.218
								C1850.322,1163.139,1850.259,1163.195,1850.224,1163.315z"/>
							<path fill="#3F3B3C" d="M1863.52,1177.65c-0.051-0.01-0.103,0.001-0.155,0.052
								C1863.447,1177.704,1863.491,1177.684,1863.52,1177.65z"/>
							<path fill="#3F3B3C" d="M1873.941,1190.931c0-0.027-0.004-0.049-0.001-0.085
								C1873.929,1190.871,1873.931,1190.9,1873.941,1190.931z"/>
							<path fill="#3F3B3C" d="M1873.779,1189.859c-0.027-0.036-0.074-0.075-0.158-0.116
								C1873.658,1189.819,1873.717,1189.849,1873.779,1189.859z"/>
							<path fill="#3F3B3C" d="M1860.847,1174.55c-0.049-0.041-0.107-0.072-0.197-0.068
								C1860.716,1174.552,1860.784,1174.559,1860.847,1174.55z"/>
							<path fill="#3F3B3C" d="M1873.438,1189.641l-0.119-0.207c-0.019,0.014-0.032,0.023-0.056,0.04L1873.438,1189.641z"/>
							<path fill="#3F3B3C" d="M1874.095,1191.188c-0.049-0.078-0.128-0.176-0.153-0.258
								C1873.941,1191.082,1873.998,1191.155,1874.095,1191.188z"/>
							<path fill="#3F3B3C" d="M1867.765,1182.187c-0.009-0.002-0.014-0.01-0.022-0.015
								C1867.51,1182.123,1867.632,1182.173,1867.765,1182.187z"/>
							<polygon fill="#3F3B3C" points="1872.326,1189.216 1872.316,1189.183 1872.199,1189.189 							"/>
							<path fill="#3F3B3C" d="M1874.629,1192.065c-0.034-0.029-0.071-0.052-0.123-0.052c0.015,0.036,0.031,0.077,0.053,0.129
								C1874.586,1192.104,1874.607,1192.083,1874.629,1192.065z"/>
							<path fill="#3F3B3C" d="M1869.568,1185.273c0.143-0.03,0.227-0.066,0.279-0.106
								C1869.796,1185.108,1869.718,1185.107,1869.568,1185.273z"/>
						</g>
					</g>
				</g>
			</g>
		</g>
	</g>
	<g>
		
			<image overflow="visible" opacity="0.75" width="100" height="107" xlink:href="E7D60CA9E039E9D0.png"  transform="matrix(1 0 0 1 1786.2129 1085.6406)">
		</image>
		<g>
			<g>
				<g>
					<g>
						<g>
							<g>
								<g>
									<path fill="#3F3B3C" d="M1853.985,1101.991c0.009-0.033,0.018-0.073,0.026-0.129
										C1853.995,1101.913,1853.987,1101.955,1853.985,1101.991z"/>
									<path fill="#3F3B3C" d="M1848.988,1100.589l0.066-0.057C1849.015,1100.537,1848.997,1100.558,1848.988,1100.589z"/>
									<path fill="#3F3B3C" d="M1856.995,1102.684l-0.01,0.03c0.046,0.01,0.109,0.023,0.212,0.047L1856.995,1102.684z"/>
									<path fill="#3F3B3C" d="M1838.235,1098.44l0.068,0.003C1838.273,1098.438,1838.255,1098.423,1838.235,1098.44z"/>
									<path fill="#3F3B3C" d="M1844.6,1099.784c-0.026,0.052-0.062,0.068-0.097,0.082
										C1844.544,1099.88,1844.578,1099.872,1844.6,1099.784z"/>
									<path fill="#3F3B3C" d="M1858.295,1105.671l-0.065-0.199C1858.222,1105.553,1858.243,1105.642,1858.295,1105.671z"/>
									<path fill="#3F3B3C" d="M1861.474,1105.248c-0.001-0.014-0.002-0.025-0.003-0.043
										C1861.464,1105.222,1861.468,1105.235,1861.474,1105.248z"/>
									<path fill="#3F3B3C" d="M1860.35,1104.353c-0.028,0.015-0.062,0.044-0.096,0.073
										C1860.291,1104.425,1860.338,1104.43,1860.35,1104.353z"/>
									<path fill="#3F3B3C" d="M1860.207,1104.469l0.047-0.043C1860.229,1104.43,1860.21,1104.436,1860.207,1104.469z"/>
									<path fill="#3F3B3C" d="M1798.695,1094.99c-0.088-0.018-0.181,0.118-0.273,0.228L1798.695,1094.99z"/>
									<path fill="#3F3B3C" d="M1828.416,1097.236l0.028-0.075C1828.424,1097.185,1828.417,1097.211,1828.416,1097.236z"/>
									<path fill="#3F3B3C" d="M1798.401,1096.624l-0.059-0.046C1798.362,1096.612,1798.382,1096.624,1798.401,1096.624z"/>
									<path fill="#3F3B3C" d="M1856.601,1105.994c-0.11,0.174-0.269-0.067-0.288,0.113
										C1856.411,1106.089,1856.529,1106.243,1856.601,1105.994z"/>
									<path fill="#3F3B3C" d="M1825.561,1104.01l-0.061,0.003C1825.528,1104.018,1825.546,1104.016,1825.561,1104.01z"/>
									<path fill="#3F3B3C" d="M1798.401,1096.624l0.067,0.053c-0.004-0.035-0.008-0.063-0.011-0.096
										C1798.438,1096.606,1798.42,1096.622,1798.401,1096.624z"/>
									<path fill="#3F3B3C" d="M1818.188,1096.02h0.004c0.008-0.011,0.015-0.019,0.023-0.03L1818.188,1096.02z"/>
									<path fill="#3F3B3C" d="M1817.68,1095.658c0.039-0.016,0.078-0.03,0.122-0.048
										C1817.742,1095.585,1817.707,1095.612,1817.68,1095.658z"/>
									<path fill="#3F3B3C" d="M1798.422,1095.218l-0.156,0.13C1798.318,1095.332,1798.37,1095.278,1798.422,1095.218z"/>
									<path fill="#3F3B3C" d="M1811.796,1095.279c0.019-0.004,0.037-0.008,0.056-0.018
										C1811.829,1095.257,1811.811,1095.263,1811.796,1095.279z"/>
									<path fill="#3F3B3C" d="M1845,1099.938c0.012,0.02,0.029,0.031,0.043,0.047
										C1845.053,1099.942,1845.054,1099.911,1845,1099.938z"/>
									<polygon fill="#3F3B3C" points="1840.407,1104.428 1840.405,1104.428 1840.405,1104.432 									"/>
									<path fill="#3F3B3C" d="M1840.648,1104.222c-0.063-0.05-0.175,0.074-0.241,0.206
										C1840.475,1104.436,1840.543,1104.403,1840.648,1104.222z"/>
									<path fill="#3F3B3C" d="M1839.954,1104.281l0.022,0.025C1839.969,1104.293,1839.962,1104.284,1839.954,1104.281z"/>
									<polygon fill="#3F3B3C" points="1844.258,1105.133 1844.26,1105.113 1844.256,1105.13 									"/>
									<path fill="#3F3B3C" d="M1843.394,1105.067c-0.011-0.038-0.028-0.067-0.05-0.089
										C1843.354,1105.017,1843.371,1105.049,1843.394,1105.067z"/>
									<polygon fill="#3F3B3C" points="1837.754,1104.567 1837.755,1104.559 1837.75,1104.561 									"/>
									<path fill="#3F3B3C" d="M1829.491,1105.036c0.826-0.019,1.923-0.277,2.718-0.079c0.218-0.363,0.476-0.349,0.742-0.405
										l-0.029,0.512l0.232-0.139c0.07,0.163-0.176,0.076-0.042,0.285l0.116-0.306c-0.004,0.184,0.537,0.181,0.137,0.505
										l0.833,0.096c0.183,0.035,0.155-0.412,0.345-0.264c0.025,0.152-0.084,0.094-0.088,0.277c0.57,0.445,0.816-0.905,1.361-0.61
										l-0.057,0.062c0.112-0.124,0.295-0.086,0.306-0.158c-0.017-0.521-0.133,0.267-0.273-0.056
										c0.062-0.43,0.242-0.208,0.268-0.537c0.116,0.171,0.222-0.064,0.341-0.078c0.169,0.293,0.475,0.132,0.587,0.486
										c0.112-0.125,0.269-0.536,0.479-0.53c0.111,0.354-0.071,0.318,0.118,0.468l0.061-0.247
										c0.163,0.058,0.129,0.124,0.109,0.241c0.178,0.031,0.188-0.326,0.394-0.141l-0.152,0.229
										c0.177-0.077,0.239-0.027,0.468,0.021c-0.021,0.143-0.112,0.123-0.176,0.074c0.084,0.384,0.232-0.137,0.296-0.089
										c-0.008-0.11-0.162-0.178-0.057-0.416c0.109,0.059,0.282-0.312,0.331-0.007l-0.151,0.227
										c0.26-0.168,0.162-0.299,0.426-0.171c-0.018,0.018-0.017,0.08-0.029,0.132c0.21-0.301,0.404,0.016,0.658,0.067
										l-0.057,0.062c0.113-0.072,0.195-0.29,0.249-0.266c-0.131-0.16-0.082-0.229-0.069-0.472
										c0.147,0.435,0.349-0.444,0.637-0.165c-0.021,0.143-0.116,0.308-0.186,0.146c-0.155,0.411-0.209,0.77-0.423,0.946
										c0.13-0.085,0.278-0.128,0.229,0.047l0.081-0.39c0.073-0.002,0.128,0.028,0.183,0.034c0.059-0.245-0.101-0.424,0.085-0.568
										c0.204-0.106,0.056,0.415,0.105,0.241c0.277-0.128,0.154-0.411,0.391-0.253c-0.028,0.029-0.085,0.093-0.103,0.053
										c0.162,0.18,0.45-0.021,0.449,0.459c-0.038,0.104-0.059,0.245-0.122,0.197l0.01-0.072
										c-0.235,0.322,0.176-0.074,0.066,0.346c0.015-0.256,0.261-0.17,0.37-0.11l-0.004-0.295
										c0.476-0.825-0.085,0.572,0.303,0.503c0.26-0.169-0.081-0.091,0.088-0.279c0.155,0.068,0.187,0.334,0.436,0.235
										c0.053,0.122,0.169,0.292,0.145,0.618c0.157-0.115,0.418,0.195,0.534-0.112c-0.214-0.301-0.281,0.312-0.521-0.143
										l0.116-0.307c0.195,0.039,0.467-0.093,0.59,0.038c-0.021-0.065-0.023-0.148,0.001-0.215
										c0.295-0.087,0.412-0.396,0.675-0.269c0.004,0.295-0.15,0.227-0.271,0.239c0.15,0.253,0.183,0.038,0.446,0.164
										c-0.014,0.255-0.183-0.037-0.242,0.208l0.312-0.046c-0.002,0.016-0.004,0.033-0.006,0.053
										c0.092-0.42,0.228,0.062,0.428-0.043c0.439,0.053,0.57-0.511,0.852-0.823c0.053,0.122,0.06,0.233,0.021,0.337
										c-0.087-0.201-0.085-0.051-0.135,0.056c0.153-0.027,0.278,0.453,0.177,0.615c0.25-0.097-0.06-0.233,0.099-0.349l0.32,0.063
										c-0.014-0.223-0.122-0.281,0.063-0.429c0.147-0.044,0.211,0.007,0.394,0.043c-0.039,0.103,0.021,0.336-0.115,0.307
										c0.079,0.092,0.218,0.118,0.295-0.087c-0.18-0.22,0.352-0.149,0.238-0.504l0.18,0.221c-0.045-0.01-0.066,0.134-0.13,0.084
										c0.021,0.336,0.176-0.075,0.25-0.099c0.063,0.071,0.244,0.122,0.246,0.251c0.073-0.084,0.222,0.006,0.231,0.178
										c0.103-0.055,0.032-0.215,0.071-0.318l0.319,0.064c-0.003,0.185-0.032,0.694-0.089,0.757
										c0.141-0.155,0.104-0.532,0.286-0.494c-0.146,0.339,0.214,0.3,0.014,0.702c0.076,0.272,0.379,0.296,0.555,0.222
										c0.134-0.269-0.161-0.179-0.119-0.466c0.478-0.051,0.595-0.84,0.921-0.663l-0.079-0.09
										c0.231-0.138,0.203-0.105,0.354-0.334c-0.099,0.349,0.136,0.985,0.495,0.949c0.05-0.176-0.158-0.363-0.069-0.641
										l0.238-0.026c0.014,0.029-0.018,0.087-0.053,0.128c0.223-0.102,0.336,0.509,0.443,0.098l0.154,0.546l-0.06-0.232
										c0.049-0.173,0.288-0.199,0.345-0.263c0.261-0.169,0.33-0.006,0.437,0.235c-0.025-0.151-0.092-0.497,0.103-0.531
										c-0.066,0.577,0.37,0.259,0.331,0.558c0.077,0.001,0.191,0.196,0.228-0.042l-0.053,0.358
										c0.073-0.5,0.348-0.445,0.569-0.511c-0.124,0.677,0.238-0.026,0.264,0.604c0.091-0.459,0.396-0.14,0.478-0.529
										c0.166-0.004,0.102,0.425,0.127,0.578l0.095-0.165c0.059,0.227,0.361,0.294,0.526,0.464l0.215-0.389l0.043,0.192
										c0.038-0.102,0.186-0.146,0.115-0.308l0.089,0.034c0.058-0.445,0.143-0.107,0.348-0.277
										c0.034,0.076,0.011,0.182-0.035,0.237c0.091,0.015,0.026,0.239,0.06,0.394c-0.052-0.121,0.418-0.763,0.194-0.992
										c0.003-0.185,0.162-0.301,0.243-0.211l0.01,0.407l0.155-0.41c0.147-0.043,0.179,0.221,0.287,0.279
										c-0.119,0.012-0.345,0.742-0.042,0.766c-0.164,0.034-0.268,0.25-0.358,0.324c0.061,0.022,0.087,0.064-0.028,0.224
										c0.249-0.097,0.105-0.237,0.344-0.262c-0.053,0.357,0,0.479,0.189,0.627l-0.123-0.281c0.013-0.043,0.026-0.074,0.041-0.094
										c-0.054-0.045-0.064-0.104-0.061-0.242c0.045,0.009,0.319-0.415,0.334-0.192c-0.172-0.586,0.457-0.387,0.345-0.741
										c0.038-0.102,0.203-0.104,0.2,0.078c-0.225,0.249,0.102,0.426,0.042,0.673c0.084-0.096-0.124-0.284-0.011-0.409
										c0.119-0.011,0.18,0.221,0.231,0.341l-0.056,0.062l0.161,0.182c0.05-0.176-0.14-0.324,0.036-0.399
										c0.035,0.081,0.211,0.006,0.189,0.149c-0.105,0.237-0.085,0.572-0.232,0.616c0.119-0.012,0.496-0.012,0.383-0.364
										l0.139,0.027c-0.071-0.162-0.285-0.462,0-0.479l-0.011,0.071l0.225-0.25l0.064,0.196c0.007-0.093,0.048-0.173,0.118-0.158
										c0.008,0.11,0.07,0.16,0.049,0.304c0.211,0.006,0.215-0.178,0.254-0.28c0.119-0.012,0.155,0.068,0.076,0.274
										c0.155,0.065,0.44,0.051,0.528,0.253c0.232-0.138-0.036-0.081,0.116-0.31c0.116,0.649,0.682,0.321,1.04,0.283
										c-0.034-0.559,0.103-0.052,0.223-0.544c-0.095,0.164,0.284,0.463-0.039,0.582l0.193-0.036
										c0.095,0.315-0.334,0.191-0.187,0.626c0.211,0.006,0.415-0.58,0.64-0.35c-0.126,0.379,0.204-0.106,0.095,0.313
										c-0.066,0.134-0.131,0.084-0.204,0.106l0.035,0.081c0.446,0.164,0.184-0.443,0.454-0.683
										c0.285-0.018,0.187,0.331,0.183,0.516c0.035,0.081,0.183,0.036,0.268-0.057c-0.197,0.218-0.289-0.279-0.183-0.516
										c0.073,0.456,0.411,0.083,0.507-0.083c-0.348-0.513-0.274-0.055-0.595-0.599c-0.066,0.134-0.102,0.532-0.309,0.343
										c0.163-0.181,0.015-0.223-0.019-0.291c0.019,0.234-0.167,0.077-0.246,0.164c-0.042-0.192,0.194-0.512-0.024-0.63
										l-0.103,0.532c-0.08-0.091,0.082-0.39-0.122-0.282c0.134-0.269,0.018-0.438,0.284-0.496
										c-0.256-0.493-0.499,0.194-0.759,0.362c0.028-0.03,0.039-0.102,0.066-0.135c-0.066,0.135-0.158,0.116-0.232,0.141
										c-0.144-0.141,0.152-0.229,0.128-0.381l-0.257-0.016c-0.003-0.019-0.004-0.027-0.002-0.039
										c-0.075,0.066-0.145,0.107-0.153-0.029c0.095-0.164,0.145-0.339,0.212-0.474l-0.31,0.344
										c0.049-0.174-0.187-0.332,0.018-0.438l-0.404,0.029l0.007-0.366c-0.102,0.054-0.112,0.125-0.004,0.182
										c-0.126-0.099-0.671,0.566-0.521-0.14c-0.344,0.262-0.442,0.131-0.84,0.271c0.327-0.3-0.284-0.461,0.04-0.58
										c-0.162-0.179-0.244,0.209-0.392,0.254c-0.115-0.171-0.017-0.52,0.142-0.636l-0.188,0.146l0.012-0.071l-0.17,0.188
										c-0.133-0.211,0.008-0.367-0.146-0.436l-0.071,0.317l-0.087-0.2c0.024,0.151-0.078,0.205-0.197,0.218l0.011-0.072
										l-0.148,0.046c0.161-0.18-0.122-0.084-0.031-0.307c-0.12-0.029-0.123-0.025-0.348,0.008l0.014,0.224
										c-0.306,0.158,0.024-0.327-0.204-0.372l-0.014,0.254c-0.285-0.462-0.591,0.176-0.806-0.125
										c0.147-0.043,0.145-0.34,0.134-0.269c-0.222,0.068-0.559-0.038-0.812,0.242c-0.039-0.376-0.046-0.487-0.253-0.677
										c-0.166,0.003-0.193,0.036-0.271,0.241c-0.142-0.16-0.463,0.018-0.44-0.249c-0.061,0.206-0.138-0.059-0.245,0.11
										l-0.006-0.111l-0.015,0.254c-0.218-0.597-0.51,0.265-0.739-0.259l0.057-0.062l-0.13,0.086
										c-0.007-0.113,0.049-0.176,0.071-0.318l-0.55-0.11l0.088,0.202c-0.119,0.013-0.225,0.248-0.341,0.078
										c0.264-0.353-0.183-0.035-0.186-0.331l0.13-0.086c-0.165,0.005-0.165,0.005-0.181,0.26
										c-0.221,0.064-0.091-0.498-0.315-0.248l0.138,0.027c0.024,0.152-0.099,0.348-0.19,0.33
										c-0.018-0.041-0.07-0.161,0.004-0.184c-0.177,0.076-0.411-0.081-0.496,0.011c-0.081-0.089-0.031-0.266,0.024-0.327
										c-0.379,0.183-0.154-0.067-0.535,0.114l0.022-0.144l-0.142,0.157l-0.141-0.324l0.042,0.193
										c-0.119,0.013-0.203,0.105-0.33,0.007l0.078-0.205c-0.342,0.079-0.341-0.4-0.687-0.138
										c-0.017-0.041,0.039-0.104,0.067-0.134c-0.327,0.302-0.177-0.404-0.514-0.03c0.026-0.069,0.004-0.162,0.022-0.221
										l-0.148,0.122l0.042-0.285l-0.155,0.411l-0.049-0.306l-0.066,0.132c-0.08-0.567-0.327-0.175-0.475-0.609l-0.008,0.366
										c-0.572,0.696-1.071-0.547-1.701-0.268l0.043-0.285l-0.282,0.31c-0.105-0.241,0.106-0.235,0.082-0.388
										c-0.278,0.128-0.156,0.411-0.469,0.459c-0.134-0.211,0.078-0.205,0.162-0.3c-0.3,0.109-0.737,0.22-0.921,0.037
										c-0.009,0.038-0.026,0.087-0.019,0.104c-0.204,0.108-0.439-0.05-0.65-0.056c0.02-0.131,0.074-0.146,0.129-0.168
										c-0.073-0.026-0.165-0.129-0.245-0.002l0.106-0.239c-0.154-0.067-0.489,0.124-0.492-0.172
										c0.007,0.113-0.025,0.328-0.162,0.299c-0.027-0.447-0.397,0.142-0.594-0.119c0.038-0.102,0.204-0.104,0.158-0.115
										c-0.099-0.129-0.222,0.064-0.335,0.19l0.051-0.174l-0.546,0.186c-0.028-0.448-0.496,0.01-0.425-0.307
										c-0.184-0.037,0.134,0.211-0.106,0.235c-0.042-0.191-0.221,0.065-0.18-0.22l0.029-0.031l-0.166,0.004l0.134-0.269
										c-0.147,0.045-0.281,0.313-0.312,0.527c-0.116-0.172-0.32-0.064-0.353-0.327l0.058-0.062
										c-0.388,0.068-0.534-0.846-0.883-0.399c-0.018-0.042-0.007-0.112,0.039-0.104l-0.229-0.044l0.079-0.206l-0.42,0.284
										l0.021-0.143c-0.246-0.087-0.65-0.058-0.98-0.051l0.056-0.062c-0.38,0.182-0.327-0.176-0.604-0.047
										c0.013-0.037,0.023-0.051,0.034-0.058l-0.234-0.021l0.066-0.134c-0.207,0.289-0.45-0.459-0.372-0.185
										c-0.113,0.125-0.3,0.271-0.349,0.444c-0.257-0.014-0.042-0.192-0.187-0.331c-0.183-0.036-0.242,0.208-0.479,0.051
										l0.021-0.144c-0.119,0.013-0.203,0.107-0.369,0.11l0.057-0.062c-0.3,0.271-0.284-0.461-0.562,0.145
										c-0.099-0.129-0.32-0.063-0.278-0.351c-0.352,0.15-0.618,0.207-0.96,0.286c0-0.479-0.073,0.022-0.242-0.27l-0.014,0.254
										c-0.469-0.019-0.932-0.704-1.456-0.659l0.014-0.255l-0.133,0.267c-0.538-0.181-1.241-0.359-1.681-0.412
										c-0.158,0.116-0.411,0.396-0.63,0.28l0.028-0.033c-0.415,0.102-0.848,0.161-1.266-0.032
										c0.038-0.104,0.004-0.184,0.061-0.247c-0.135,0.269-0.257-0.015-0.35-0.032l0.088,0.202
										c-0.15,0.227-0.302-0.024-0.344-0.217l-0.226,0.25c-0.01-0.026-0.025-0.068-0.024-0.109l-0.049,0.131l-0.066-0.347
										c-0.057,0.063-0.324,0.12-0.44,0.43c-0.007-0.112-0.18-0.221-0.031-0.265l-0.703-0.179l0.099,0.131
										c-0.015,0.254-0.247,0.392-0.345,0.263c0.168-0.188,0.052-0.358,0.011-0.552c-0.112,0.125,0.06,0.233-0.008,0.366
										c-0.141,0.156-0.408,0.215-0.46,0.093l0.084-0.093c-0.176,0.075-0.203-0.373-0.369-0.371
										c-0.169,0.188-0.256-0.013-0.274,0.426c-0.222,0.065-0.049-0.305-0.112-0.354c-0.123,0.196-0.404,0.029-0.418-0.196
										c-0.187,0.626-0.545-0.293-0.647,0.239l-0.141-0.323c-0.021,0.144-0.092,0.462-0.239,0.505
										c-0.115-0.17-0.056-0.417-0.08-0.569l-0.148,0.524c-0.702-0.658-1.755-0.39-2.542-0.955
										c-0.387,0.071-0.886,0.266-1.314,0.142l0.056-0.063l-0.418-0.194l0.288,0.28c-0.102,0.052-0.188,0.146-0.278,0.128
										c-0.452-0.275-1.059-0.617-1.676-0.412c-0.449,0.573-0.192-0.572-0.606-0.165c0.037-0.054,0.059-0.14,0.094-0.196
										c-0.416,0.16-0.641,0.242-1.073,0.559c0.112-0.604-0.257-0.015-0.187-0.331l-0.061,0.245
										c-0.07-0.161-0.27-0.238-0.221-0.412l-0.208,0.289l0.014-0.256c-0.228-0.045-0.744,0.108-0.808-0.42
										c-0.612,0.319-1.498,0.104-2.201-0.073c-0.123,0.196-0.334,0.19-0.499,0.194l-0.141-0.322
										c-0.176,0.074-0.395,0.436-0.527,0.224c0.005-0.034,0.015-0.059,0.027-0.075c-0.176,0.043-0.317-0.136-0.507,0.127
										c-0.183-0.036-0.344-0.218-0.256-0.493c-0.074,0.501-0.383-0.115-0.383-0.115s-9.34-2.277-11.955,0.192
										c-0.105,0.237-0.338,0.375-0.289,0.68c-0.176,0.074-0.203-0.372-0.264-0.128c0.208,0.19-0.141,0.635,0.045,0.968
										l-0.148,0.045c-0.048,0.173,0.216-0.179,0.146,0.138l0.091-0.459c0.107,0.082,0.159,0.187,0.183,0.348
										c0.128-0.169,0.267-0.789,0.493-0.486l-0.074,0.02c0.212,0.007,0.096,0.314,0.131,0.395l-0.046-0.009l0.15,0.253
										c-0.116-0.171-0.38,0.182-0.261,0.167c0.236,0.157-0.052-0.12,0.142-0.155c0.119-0.012,0.059,0.232,0.038,0.376
										l0.211,0.006c-0.031,0.214-0.138-0.027-0.077,0.205l0.289-0.199c-0.012,0.551,0.315-0.23,0.379,0.297
										c-0.204,0.106-0.004,0.185-0.054,0.358l0.468,0.021c0.036,0.08-0.141,0.154-0.067,0.135
										c0.071,0.16,0.158-0.117,0.205-0.108c0.024,0.154,0.348,0.033,0.295,0.393c0.287,0.277,0.183-0.443,0.453-0.205
										c0.015,0.225-0.238,0.026-0.134,0.268l0.313-0.047c-0.039,0.104-0.099,0.349-0.207,0.289
										c0.79,0.381,1.105,1.586,1.891,1.376c0.077,0.273-0.096,0.166-0.19,0.33c0.583-0.287,0.703,0.658,1.17,0.679l0.032-0.215
										c0.572,0.742,1.396,0.429,2.095,0.789l-0.07-0.161c0.124-0.196,0.289-0.2,0.419-0.283c0.007,0.11-0.138,0.45,0.084,0.385
										c-0.035-0.082-0.115-0.173-0.077-0.274c0.565,0.631,1.905,0.641,2.907,1.026c1.413-0.01,2.88,0.579,4.265,0.601
										c-0.21-0.006-0.062-0.528,0.081-0.389c0.33,0.95,0.764-0.067,1.135,0.597c0.831-0.201,1.456,0.66,2.276,0.052l-0.015,0.256
										c0.098,0.129,0.148-0.044,0.268-0.057l-0.011,0.071c0.264,0.126,0.626-0.095,0.771,0.044l0.042-0.285
										c0.166-0.006,0.06,0.231,0.245,0.086l-0.021,0.144l0.226-0.25c-0.074,0.5,0.457,0.092,0.562,0.333
										c0.222-0.066,0.646-0.238,0.956-0.102c0.031,0.265,0.425,0.307,0.661,0.465c0.495-0.01,1.202-0.017,1.814,0.145
										l0.024-0.328l0.165-0.003c-0.011,0.071,0.007,0.111-0.021,0.144c0.085,0.385,0.387-0.072,0.492,0.172
										c-0.049-0.304-0.108-0.059-0.2-0.077c-0.116-0.17,0.046-0.471,0.208-0.289l-0.012,0.071l0.142-0.157
										c-0.015,0.256,0.084,0.387,0.07,0.641c0.541-0.001,0.953-0.397,1.491-0.216c-0.089,0.277,0.404-0.027,0.238,0.452
										c0.352-0.148-0.01-0.404,0.18-0.736c0.092,0.019,0.204-0.106,0.2,0.078c-0.057,0.113,0.042,0.309-0.038,0.346l0.226-0.015
										c0.017,0.041-0.04,0.104-0.067,0.134c0.481-0.235,0.763,0.411,1.198,0.169c0.05-0.174-0.154-0.068-0.105-0.243
										c0.447-0.316,0.324,0.36,0.731,0.146l-0.105,0.237c0.141-0.156,0.219-0.361,0.397-0.142
										c0.003,0.296-0.197,0.219-0.31,0.344c0.137,0.027,0.495-0.01,0.418-0.284c0.177-0.076,0.208,0.188,0.289,0.277
										c0.011-0.07-0.134-0.21-0.021-0.334c0.207,0.188,0.557,0.222,0.829,0.277c-0.01,0.071-0.003,0.183-0.031,0.215
										C1829.272,1104.439,1829.178,1105.083,1829.491,1105.036z"/>
									<path fill="#3F3B3C" d="M1844.364,1105.189l-0.106-0.057c-0.007,0.064-0.021,0.137-0.08,0.202L1844.364,1105.189z"/>
									<path fill="#3F3B3C" d="M1839.104,1104.418c-0.016,0.021-0.032,0.041-0.048,0.074
										C1839.084,1104.482,1839.096,1104.451,1839.104,1104.418z"/>
									<path fill="#3F3B3C" d="M1837.765,1104.784c0.099-0.052,0.025-0.139-0.011-0.217
										C1837.745,1104.625,1837.739,1104.695,1837.765,1104.784z"/>
									<path fill="#3F3B3C" d="M1847.441,1104.757c-0.023,0.025-0.039,0.062-0.043,0.124
										C1847.431,1104.831,1847.44,1104.793,1847.441,1104.757z"/>
									<path fill="#3F3B3C" d="M1855.686,1105.887c-0.009-0.015-0.016-0.025-0.027-0.047
										C1855.661,1105.861,1855.672,1105.877,1855.686,1105.887z"/>
									<path fill="#3F3B3C" d="M1855.278,1105.383c-0.022-0.004-0.053,0.002-0.099,0.03
										C1855.22,1105.434,1855.251,1105.414,1855.278,1105.383z"/>
									<path fill="#3F3B3C" d="M1845.425,1104.64c-0.031,0.006-0.063,0.024-0.097,0.081
										C1845.376,1104.72,1845.404,1104.682,1845.425,1104.64z"/>
									<path fill="#3F3B3C" d="M1855.078,1105.467l-0.112-0.044c-0.003,0.02-0.005,0.033-0.008,0.057L1855.078,1105.467z"/>
									<path fill="#3F3B3C" d="M1855.827,1105.939c-0.044-0.015-0.105-0.021-0.142-0.053
										C1855.734,1105.972,1855.779,1105.979,1855.827,1105.939z"/>
									<path fill="#3F3B3C" d="M1850.518,1104.725c-0.005,0.005-0.009,0.004-0.014,0.006
										C1850.4,1104.845,1850.463,1104.799,1850.518,1104.725z"/>
									<polygon fill="#3F3B3C" points="1854.519,1105.906 1854.504,1105.893 1854.462,1105.968 									"/>
									<path fill="#3F3B3C" d="M1856.312,1106.107c-0.022,0.004-0.043,0.015-0.062,0.046c0.018,0.012,0.037,0.024,0.062,0.04
										C1856.309,1106.156,1856.311,1106.131,1856.312,1106.107z"/>
									<path fill="#3F3B3C" d="M1852.198,1105.365c0.045-0.104,0.065-0.176,0.072-0.23
										C1852.231,1105.134,1852.202,1105.181,1852.198,1105.365z"/>
								</g>
							</g>
						</g>
					</g>
				</g>
				<g>
					<g>
						<g>
							<g>
								<g>
									<path fill="#3F3B3C" d="M1805.703,1162.939c0.018,0.029,0.042,0.062,0.08,0.104
										C1805.757,1162.996,1805.73,1162.963,1805.703,1162.939z"/>
									<path fill="#3F3B3C" d="M1811.572,1158.313l-0.017,0.106C1811.59,1158.373,1811.589,1158.342,1811.572,1158.313z"/>
									<path fill="#3F3B3C" d="M1802.291,1165.816c-0.004-0.013-0.01-0.019-0.015-0.029c-0.052,0.045-0.123,0.105-0.238,0.203
										L1802.291,1165.816z"/>
									<path fill="#3F3B3C" d="M1823.496,1147.844l-0.067,0.072C1823.462,1147.886,1823.492,1147.875,1823.496,1147.844z"/>
									<path fill="#3F3B3C" d="M1816.38,1153.997c-0.018-0.059,0.004-0.107,0.025-0.153
										C1816.355,1153.88,1816.329,1153.922,1816.38,1153.997z"/>
									<path fill="#3F3B3C" d="M1798.633,1165.462l0.224,0.047C1798.798,1165.452,1798.705,1165.423,1798.633,1165.462z"/>
									<path fill="#3F3B3C" d="M1795.967,1169.186c0.013,0.007,0.021,0.015,0.039,0.021
										C1795.998,1169.19,1795.984,1169.186,1795.967,1169.186z"/>
									<path fill="#3F3B3C" d="M1797.76,1168.488c0.015-0.038,0.022-0.093,0.031-0.148
										C1797.757,1168.382,1797.708,1168.431,1797.76,1168.488z"/>
									<path fill="#3F3B3C" d="M1797.8,1168.264l-0.009,0.076C1797.811,1168.312,1797.824,1168.287,1797.8,1168.264z"/>
									<path fill="#3F3B3C" d="M1863.724,1106.702c0.099-0.086,0.075-0.267,0.074-0.434L1863.724,1106.702z"/>
									<path fill="#3F3B3C" d="M1833.768,1137.833l0.035,0.075C1833.804,1137.872,1833.787,1137.849,1833.768,1137.833z"/>
									<path fill="#3F3B3C" d="M1862.674,1105.411l0.093-0.037C1862.721,1105.376,1862.692,1105.39,1862.674,1105.411z"/>
									<path fill="#3F3B3C" d="M1799.974,1163.419c-0.038-0.224,0.309-0.253,0.18-0.381
										C1800.076,1163.156,1799.838,1163.194,1799.974,1163.419z"/>
									<path fill="#3F3B3C" d="M1830.965,1130.692l0.055-0.067C1830.988,1130.652,1830.973,1130.673,1830.965,1130.692z"/>
									<path fill="#3F3B3C" d="M1862.674,1105.411l-0.107,0.043c0.032,0.017,0.06,0.029,0.089,0.044
										C1862.652,1105.462,1862.658,1105.433,1862.674,1105.411z"/>
									<path fill="#3F3B3C" d="M1844.438,1127.384l-0.004,0.004c0.001,0.016,0.002,0.026,0.003,0.044L1844.438,1127.384z"/>
									<path fill="#3F3B3C" d="M1845.213,1127.042c-0.025,0.053-0.05,0.104-0.077,0.162
										C1845.213,1127.154,1845.225,1127.1,1845.213,1127.042z"/>
									<path fill="#3F3B3C" d="M1863.798,1106.269l0.042-0.248C1863.803,1106.088,1863.797,1106.177,1863.798,1106.269z"/>
									<path fill="#3F3B3C" d="M1851.09,1120.84c-0.016,0.023-0.029,0.047-0.039,0.072
										C1851.076,1120.89,1851.09,1120.866,1851.09,1120.84z"/>
									<path fill="#3F3B3C" d="M1815.875,1154.344c-0.026,0-0.052,0.013-0.078,0.019
										C1815.822,1154.398,1815.848,1154.418,1815.875,1154.344z"/>
									<polygon fill="#3F3B3C" points="1816.573,1146.661 1816.574,1146.659 1816.572,1146.657 									"/>
									<path fill="#3F3B3C" d="M1816.513,1147.047c0.099-0.039,0.104-0.234,0.061-0.386
										C1816.503,1146.73,1816.464,1146.824,1816.513,1147.047z"/>
									<path fill="#3F3B3C" d="M1817.121,1146.253c-0.015,0.004-0.026,0.006-0.043,0.01
										C1817.098,1146.263,1817.111,1146.261,1817.121,1146.253z"/>
									<polygon fill="#3F3B3C" points="1812.355,1150.449 1812.369,1150.463 1812.359,1150.448 									"/>
									<path fill="#3F3B3C" d="M1813.226,1149.544c0.042,0.01,0.083,0.009,0.12-0.002
										C1813.305,1149.531,1813.263,1149.529,1813.226,1149.544z"/>
									<polygon fill="#3F3B3C" points="1818.971,1143.68 1818.977,1143.687 1818.979,1143.681 									"/>
									<path fill="#3F3B3C" d="M1826.41,1134.377c-0.768,0.913-1.595,2.265-2.508,3.016c0.089,0.453-0.168,0.726-0.374,1.051
										l-0.388-0.335l-0.107,0.336c-0.199-0.021,0.104-0.237-0.192-0.216l0.14,0.309c-0.146-0.113-0.656,0.479-0.541-0.15
										l-0.866,0.854c-0.202,0.179,0.188,0.414-0.111,0.533c-0.148-0.063,0.003-0.148-0.143-0.261
										c-0.901,0.358-0.037,1.429-0.792,1.849l0.003-0.098c-0.005,0.196-0.209,0.373-0.16,0.428
										c0.438,0.291-0.091-0.304,0.304-0.267c0.29,0.324-0.061,0.389,0.184,0.611c-0.249,0.026-0.157,0.281-0.26,0.419
										c-0.396,0.011-0.557,0.44-0.95,0.353c-0.005,0.197,0.182,0.611-0.022,0.838c-0.394-0.088-0.191-0.267-0.492-0.147
										l0.144,0.213c-0.201,0.144-0.224,0.066-0.3-0.024c-0.193,0.176,0.088,0.398-0.258,0.514l-0.043-0.303
										c-0.104,0.239-0.204,0.277-0.459,0.499c-0.097-0.108,0.006-0.196,0.106-0.236c-0.393-0.136-0.109,0.335-0.208,0.376
										c0.097,0.058,0.298-0.071,0.391,0.186c-0.15,0.085-0.013,0.492-0.307,0.365l-0.041-0.301
										c-0.11,0.385,0.089,0.355-0.264,0.567c0.002-0.029-0.05-0.066-0.08-0.109c0.046,0.406-0.395,0.432-0.678,0.678l0.003-0.098
										c-0.048,0.166,0.052,0.385-0.019,0.429c0.254-0.047,0.264,0.047,0.448,0.205c-0.493-0.097,0.032,0.645-0.469,0.794
										c-0.096-0.107-0.14-0.31,0.058-0.29c-0.188-0.414-0.428-0.685-0.369-1.023c-0.054,0.192-0.158,0.38-0.254,0.222l0.24,0.32
										c-0.068,0.081-0.145,0.123-0.201,0.179c0.145,0.21,0.44,0.142,0.382,0.431c-0.105,0.285-0.39-0.186-0.295-0.028
										c-0.159,0.379,0.188,0.413-0.165,0.577c0.003-0.049,0.005-0.148,0.054-0.144c-0.299,0.07-0.408,0.504-0.798,0.219
										c-0.048-0.104-0.144-0.211-0.044-0.251l0.048,0.054c-0.038-0.448-0.105,0.236-0.344-0.133
										c0.195,0.168-0.108,0.386-0.26,0.469l0.244,0.172c0.221,1.01-0.386-0.433-0.696,0.032
										c-0.108,0.384,0.151-0.034,0.144,0.261c-0.202,0.129-0.447,0.006-0.604,0.337c-0.148-0.016-0.397,0.011-0.639-0.21
										c-0.056,0.24-0.555,0.341-0.414,0.65c0.446-0.055,0.012-0.493,0.607-0.483l0.141,0.309c-0.217,0.19-0.366,0.565-0.59,0.622
										c0.072,0.017,0.144,0.062,0.173,0.129c-0.208,0.374-0.067,0.685-0.42,0.896c-0.243-0.171-0.041-0.3,0.062-0.438
										c-0.349,0.015-0.204,0.177-0.557,0.39c-0.194-0.166,0.203-0.178,0.06-0.388l-0.258,0.368l-0.037-0.037
										c0.255,0.349-0.267,0.211-0.37,0.492c-0.458,0.448-0.124,0.926-0.137,1.419c-0.148-0.015-0.246-0.073-0.293-0.178
										c0.246,0.024,0.121-0.062,0.082-0.18c-0.123,0.184-0.632,0.035-0.667-0.172c-0.158,0.329,0.246,0.072,0.189,0.314
										l-0.354,0.312c0.194,0.117,0.345,0.033,0.289,0.324c-0.104,0.187-0.205,0.227-0.407,0.404
										c-0.048-0.104-0.294-0.176-0.141-0.309c-0.15,0.033-0.303,0.168-0.209,0.374c0.35-0.065-0.211,0.473,0.184,0.561
										l-0.349,0.064c0.051-0.044-0.046-0.152,0.055-0.191c-0.293-0.177-0.105,0.236-0.156,0.331
										c-0.119,0.027-0.331,0.195-0.438,0.119c-0.001,0.131-0.214,0.239-0.363,0.148c-0.053,0.145,0.145,0.162,0.191,0.267
										l-0.354,0.311c-0.147-0.113-0.534-0.448-0.532-0.546c-0.007,0.246,0.336,0.429,0.132,0.605
										c-0.139-0.359-0.445,0.056-0.584-0.402c-0.294-0.078-0.6,0.238-0.705,0.476c0.091,0.305,0.299-0.071,0.491,0.146
										c-0.411,0.552,0.12,1.147-0.333,1.399l0.149-0.034c-0.107,0.335-0.107,0.285-0.064,0.586
										c-0.19-0.314-0.931-0.437-1.24-0.022c0.096,0.158,0.445,0.043,0.586,0.304l-0.204,0.277
										c-0.037-0.003-0.053-0.072-0.054-0.135c-0.128,0.304-0.732,0.066-0.499,0.427l-0.59-0.156l0.245,0.073
										c0.095,0.156-0.111,0.434-0.113,0.532c-0.108,0.386-0.308,0.365-0.604,0.337c0.146,0.062,0.491,0.195,0.335,0.428
										c-0.407-0.415-0.562,0.251-0.768,0.031c-0.073,0.083-0.341,0.092-0.181,0.272l-0.241-0.271
										c0.337,0.377,0.033,0.645-0.124,0.926c-0.433-0.537-0.204,0.276-0.741-0.071c0.287,0.372-0.262,0.517-0.021,0.837
										c-0.153,0.183-0.441-0.142-0.59-0.205l0.044,0.201c-0.239-0.07-0.581,0.221-0.875,0.301l0.112,0.465l-0.196-0.068
										c0.046,0.103-0.058,0.29,0.141,0.31l-0.112,0.077c0.309,0.326-0.047,0.219-0.103,0.544c-0.095-0.008-0.159-0.096-0.16-0.18
										c-0.098,0.091-0.219-0.113-0.377-0.169c0.148,0.016,0.225,0.91,0.623,0.802c0.147,0.112,0.092,0.355-0.059,0.391
										l-0.341-0.231l0.188,0.413c-0.104,0.187-0.349,0.065-0.499,0.149c0.103-0.138-0.277-0.818-0.583-0.502
										c0.128-0.199,0.05-0.439,0.076-0.583c-0.076,0.053-0.136,0.057-0.155-0.165c-0.157,0.33,0.093,0.257-0.113,0.532
										c-0.241-0.27-0.39-0.285-0.688-0.165l0.345,0.032c0.023,0.039,0.035,0.072,0.038,0.1c0.088-0.031,0.145-0.008,0.255,0.078
										c-0.051,0.044,0.034,0.595-0.161,0.479c0.64,0.16-0.118,0.729,0.276,0.816c0.047,0.103-0.108,0.284-0.253,0.174
										c0.011-0.395-0.441-0.143-0.586-0.354c-0.002,0.148,0.348,0.034,0.342,0.231c-0.104,0.136-0.349,0.064-0.496,0.051
										l0.003-0.099l-0.301,0.069c0.097,0.158,0.396,0.039,0.29,0.275c-0.098-0.01-0.204,0.228-0.3,0.119
										c-0.093-0.257-0.385-0.433-0.281-0.621c-0.104,0.139-0.46,0.549-0.066,0.636l-0.153,0.135
										c0.198,0.019,0.646-0.038,0.391,0.284l-0.049-0.054l-0.01,0.394l-0.22-0.046c0.067,0.062,0.095,0.154,0.016,0.224
										c-0.096-0.059-0.196-0.019-0.293-0.128c-0.204,0.228-0.058,0.341-0.012,0.443c-0.104,0.139-0.202,0.129-0.296-0.078
										c-0.2,0.13-0.457,0.45-0.705,0.426c-0.108,0.336,0.1,0.009,0.142,0.312c-0.638-0.26-0.907,0.554-1.214,0.968
										c0.485,0.294-0.056,0.143,0.23,0.565c-0.043-0.201-0.645,0.036-0.436-0.388l-0.154,0.232
										c-0.345-0.084,0.161-0.479-0.332-0.576c-0.204,0.228,0.078,0.799-0.321,0.906c-0.188-0.362-0.106,0.287-0.345-0.082
										c-0.045-0.152,0.056-0.192,0.106-0.285l-0.099-0.011c-0.556,0.391,0.187,0.464,0.125,0.901
										c-0.255,0.322-0.445,0.007-0.592-0.106c-0.099-0.01-0.202,0.178-0.207,0.325c0.01-0.344,0.501-0.148,0.592,0.106
										c-0.44-0.189-0.456,0.4-0.412,0.604c0.746-0.075,0.304-0.268,1.049-0.293c-0.045-0.153-0.335-0.429,0.015-0.542
										c-0.008,0.285,0.167,0.148,0.253,0.153c-0.207-0.119,0.096-0.229,0.1-0.366c0.196,0.068,0.233,0.516,0.535,0.348
										l-0.336-0.429c0.15-0.033,0.24,0.32,0.347,0.034c0.092,0.306,0.34,0.279,0.134,0.604c0.643,0.014,0.313-0.66,0.424-1.044
										c-0.003,0.049,0.046,0.104,0.046,0.153c-0.046-0.153,0.056-0.242,0.106-0.337c0.249-0.074,0.042,0.302,0.188,0.365
										l0.256-0.271c0.018,0.007,0.025,0.013,0.033,0.021c0.018-0.121,0.05-0.221,0.169-0.149
										c0.043,0.201,0.139,0.359,0.185,0.512l0.014-0.541c0.095,0.156,0.446-0.008,0.34,0.279l0.358-0.459l0.291,0.225
										c0.054-0.143,0.006-0.197-0.144-0.112c0.2-0.079,0.175-1.069,0.606-0.484c0.112-0.532,0.312-0.562,0.574-1.079
										c-0.064,0.535,0.645-0.037,0.436,0.388c0.298-0.07,0.06-0.39,0.163-0.578c0.248-0.024,0.438,0.29,0.383,0.532l0.058-0.291
										l0.048,0.055l0.008-0.297c0.298-0.021,0.291,0.227,0.493,0.098l-0.191-0.265l0.246,0.022
										c-0.146-0.063-0.094-0.206,0.01-0.344l0.048,0.054l0.104-0.189c-0.007,0.283,0.184-0.082,0.279,0.148
										c0.137-0.113,0.137-0.119,0.322-0.385l-0.195-0.117c0.161-0.429,0.243,0.221,0.496-0.002l-0.193-0.166
										c0.646-0.037,0.416-0.749,0.863-0.806c-0.104,0.187,0.14,0.359,0.092,0.306c0.155-0.283,0.561-0.588,0.572-1.031
										c0.343,0.181,0.439,0.24,0.789,0.126c0.154-0.183,0.154-0.232,0.061-0.439c0.265-0.061,0.424-0.516,0.62-0.333
										c-0.11-0.188,0.178-0.116,0.143-0.333l0.096,0.059l-0.193-0.167c0.692,0.117,0.268-0.714,0.91-0.652l-0.003,0.099
										l0.054-0.193c0.098,0.06,0.096,0.158,0.191,0.267l0.609-0.534l-0.248-0.024c0.104-0.138,0.012-0.393,0.26-0.419
										c0.037,0.498,0.202-0.179,0.445-0.006l-0.053,0.192c0.152-0.183,0.152-0.183-0.041-0.351
										c0.156-0.279,0.491,0.196,0.5-0.197l-0.151,0.133c-0.147-0.063-0.19-0.313-0.09-0.403c0.051,0.005,0.198,0.019,0.147,0.113
										c0.104-0.238,0.455-0.401,0.46-0.548c0.148-0.036,0.245,0.123,0.242,0.221c0.212-0.522,0.201-0.129,0.414-0.652
										l0.096,0.109l0.006-0.248l0.396,0.039l-0.197-0.068c0.104-0.138,0.107-0.285,0.308-0.365l0.093,0.207
										c0.259-0.42,0.648-0.134,0.762-0.668c0.05,0.006,0.047,0.104,0.045,0.153c0.064-0.536,0.496,0.048,0.511-0.543
										c0.031,0.069,0.128,0.101,0.158,0.155l0.041-0.234l0.192,0.216l-0.188-0.414l0.295,0.128l-0.045-0.151
										c0.538,0.249,0.452-0.254,0.945-0.156l-0.291-0.226c-0.023-1.039,1.46-0.846,1.828-1.7l0.191,0.217l0.015-0.492
										c0.296,0.028,0.092,0.256,0.238,0.319c0.159-0.38-0.187-0.414,0.07-0.784c0.298-0.021,0.094,0.207,0.09,0.355
										c0.195-0.393,0.52-0.937,0.842-1.028c-0.022-0.032-0.045-0.081-0.067-0.082c0.105-0.287,0.456-0.45,0.661-0.678
										c0.088,0.1,0.049,0.168,0.015,0.241c0.09-0.064,0.261-0.104,0.233-0.267l0.093,0.258c0.202-0.129,0.362-0.607,0.606-0.436
										c-0.099-0.06-0.243-0.223-0.09-0.354c0.391,0.235,0.262-0.519,0.659-0.578c0.046,0.103-0.107,0.285-0.056,0.242
										c0.198-0.031,0.156-0.281,0.161-0.479l0.095,0.158l0.365-0.706c0.391,0.235,0.461-0.548,0.651-0.282
										c0.203-0.179-0.298,0.021-0.091-0.256c0.194,0.068,0.156-0.28,0.349-0.065l-0.002,0.05l0.153-0.184l0.092,0.307
										c0.104-0.188,0.012-0.494-0.133-0.655c0.25-0.024,0.355-0.311,0.6-0.19l-0.003,0.1c0.311-0.464,1.192-0.081,1.159-0.727
										c0.051,0.006,0.098,0.059,0.048,0.104l0.254-0.224l0.093,0.208l0.166-0.626l0.096,0.107
										c0.304-0.218,0.662-0.677,0.969-1.041l-0.002,0.098c0.212-0.522,0.453-0.253,0.611-0.633
										c0.017,0.036,0.019,0.057,0.014,0.072l0.238-0.244l0.046,0.152c-0.039-0.398,0.799-0.219,0.503-0.297
										c0.006-0.197,0.063-0.488-0.031-0.645c0.254-0.272,0.195,0.068,0.445-0.007c0.202-0.179,0.061-0.389,0.411-0.553
										l0.097,0.107c0.103-0.138,0.105-0.286,0.259-0.468l-0.002,0.098c0.062-0.487,0.645-0.036,0.415-0.699
										c0.198-0.031,0.354-0.312,0.548-0.096c0.211-0.473,0.417-0.799,0.676-1.219c0.39,0.284,0.052-0.094,0.449-0.104
										l-0.193-0.166c0.458-0.501,1.454-0.6,1.913-1.198l0.194,0.166l-0.091-0.304c0.657-0.48,1.467-1.142,1.926-1.591
										c0.056-0.242,0.066-0.685,0.369-0.854v0.05c0.31-0.513,0.671-1.021,1.225-1.363c0.047,0.104,0.145,0.114,0.143,0.213
										c-0.091-0.306,0.255-0.271,0.356-0.361l-0.247-0.024c-0.043-0.299,0.306-0.315,0.502-0.247l0.01-0.395
										c0.031,0.005,0.08,0.012,0.111,0.038l-0.059-0.131l0.344,0.132c0.002-0.099,0.21-0.425,0.068-0.735
										c0.098,0.06,0.349-0.064,0.245,0.123l0.81-0.661l-0.199,0.029c-0.193-0.166-0.085-0.502,0.112-0.532
										c-0.006,0.295,0.242,0.27,0.438,0.339c0.004-0.197-0.245-0.073-0.291-0.226c0.007-0.246,0.213-0.573,0.36-0.558
										l-0.004,0.147c0.105-0.237,0.496-0.001,0.65-0.184c0.008-0.296,0.254-0.272-0.086-0.552
										c0.157-0.282,0.294,0.127,0.396,0.087c-0.044-0.251,0.357-0.459,0.554-0.34c-0.332-0.575,0.754-0.421,0.419-0.849
										l0.396,0.038c-0.097-0.108-0.288-0.374-0.184-0.562c0.248-0.025,0.393,0.187,0.538,0.251l-0.285-0.474
										c1.199-0.376,1.978-1.686,3.182-2.209c0.309-0.465,0.623-1.126,1.13-1.521l-0.002,0.099l0.554-0.342l-0.5,0.148
										c0.054-0.142,0.058-0.291,0.158-0.38c0.653-0.33,1.504-0.789,1.922-1.586c-0.041-0.831,0.647,0.13,0.709-0.564
										c0.008,0.072,0.058,0.146,0.07,0.219c0.264-0.549,0.409-0.843,0.562-1.504c0.384,0.481,0.256-0.271,0.446-0.007
										l-0.143-0.211c0.198,0.019,0.449-0.153,0.545,0.003l-0.039-0.398l0.195,0.166c0.252-0.222,0.616-0.877,1.105-0.633
										c0.32-0.857,1.332-1.698,2.143-2.36c-0.043-0.251,0.161-0.478,0.315-0.66l0.395,0.037c0.106-0.236,0.02-0.689,0.316-0.708
										c0.023,0.025,0.035,0.05,0.036,0.073c0.131-0.217,0.411-0.266,0.376-0.628c0.202-0.178,0.503-0.247,0.644,0.013
										c-0.338-0.378,0.456-0.35,0.456-0.35s10.691-8.85,11.158-13.173c-0.094-0.256,0.015-0.592-0.279-0.719
										c0.106-0.236,0.495-0.002,0.354-0.212c-0.351,0.113-0.383-0.531-0.83-0.525l0.104-0.188
										c-0.095-0.156-0.058,0.341-0.248,0.076l0.286,0.372c-0.168,0.068-0.302,0.063-0.455-0.008
										c0.016,0.24,0.39,0.761-0.071,0.828l0.054-0.093c-0.206,0.228-0.345-0.082-0.444-0.092l0.051-0.045l-0.349,0.015
										c0.249-0.025,0.212-0.521,0.111-0.384c-0.351,0.164,0.146,0.015-0.008,0.247c-0.104,0.137-0.245-0.074-0.341-0.182
										l-0.205,0.227c-0.145-0.161,0.152-0.134-0.094-0.206l-0.111,0.434c-0.437-0.339-0.111,0.482-0.6,0.238
										c0.105-0.286-0.147-0.113-0.241-0.271l-0.459,0.498c-0.1-0.009,0.007-0.245-0.047-0.153
										c-0.196-0.018-0.055,0.242-0.106,0.288c-0.147-0.065-0.354,0.359-0.597,0.089c-0.498,0.149,0.187,0.463-0.263,0.617
										c-0.196-0.118,0.204-0.276-0.092-0.305l-0.258,0.37c-0.047-0.104-0.19-0.315-0.039-0.398
										c-1.058,0.637-2.336,0.267-2.908,1.248c-0.295-0.078-0.044-0.203-0.088-0.403c-0.319,0.808-1.2,0.377-1.659,0.875
										l0.144,0.162c-1.145,0.186-1.668,1.27-2.624,1.82l0.198,0.019c0.042,0.252-0.11,0.434-0.167,0.626
										c-0.096-0.059-0.235-0.418-0.392-0.137c0.1,0.011,0.249-0.024,0.296,0.078c-1.048,0.243-2.324,1.701-3.586,2.566
										c-1.329,1.55-3.196,2.802-4.524,4.302c0.204-0.227,0.489,0.245,0.238,0.319c-1.084-0.203-0.667,0.874-1.559,0.886
										c-0.622,1.026-1.915,1.198-2.196,2.454l-0.194-0.167c-0.197,0.03-0.104,0.188-0.206,0.325l-0.048-0.054
										c-0.354,0.214-0.516,0.74-0.766,0.815l0.192,0.216c-0.152,0.185-0.245-0.072-0.303,0.217l-0.097-0.107l-0.01,0.395
										c-0.337-0.379-0.508,0.444-0.804,0.416c-0.155,0.281-0.418,0.849-0.822,1.105c-0.245-0.123-0.651,0.282-1.003,0.446
										c-0.461,0.547-1.126,1.322-1.835,1.896l0.243,0.222l-0.153,0.182c-0.048-0.054-0.098-0.058-0.097-0.107
										c-0.393-0.137-0.309,0.465-0.605,0.435c0.293,0.127,0.15-0.083,0.252-0.173c0.248-0.025,0.339,0.33,0.038,0.399
										l-0.047-0.056l-0.007,0.248c-0.193-0.167-0.394-0.138-0.587-0.304c-0.511,0.592-0.579,1.277-1.235,1.757
										c-0.143-0.261-0.36,0.458-0.594-0.008c-0.212,0.473,0.339,0.229,0.429,0.633c-0.102,0.09-0.106,0.286-0.253,0.173
										c-0.039-0.129-0.29-0.138-0.244-0.247l-0.202,0.255c-0.05-0.006-0.047-0.104-0.045-0.153
										c-0.265,0.666-1.057,0.589-1.272,1.209c0.095,0.158,0.202-0.128,0.299,0.03c-0.166,0.675-0.6,0.14-0.812,0.711
										l-0.092-0.256c-0.008,0.247,0.086,0.453-0.262,0.518c-0.243-0.172,0.009-0.345,0.014-0.541
										c-0.152,0.133-0.461,0.547-0.165,0.625c-0.104,0.237-0.35,0.115-0.499,0.15c0.048,0.054,0.298-0.021,0.292,0.175
										c-0.35,0.115-0.707,0.477-1.011,0.741c-0.048-0.053-0.145-0.111-0.145-0.161
										C1827.102,1134.492,1826.668,1134.006,1826.41,1134.377z"/>
									<path fill="#3F3B3C" d="M1812.208,1150.531l0.147-0.082c-0.046-0.047-0.093-0.104-0.09-0.208L1812.208,1150.531z"/>
									<path fill="#3F3B3C" d="M1817.814,1145.244c-0.002-0.031-0.003-0.061-0.015-0.098
										C1817.781,1145.184,1817.795,1145.216,1817.814,1145.244z"/>
									<path fill="#3F3B3C" d="M1818.784,1143.563c-0.051,0.139,0.088,0.109,0.187,0.116
										C1818.933,1143.637,1818.881,1143.588,1818.784,1143.563z"/>
									<path fill="#3F3B3C" d="M1809.647,1154.148c0.001-0.039-0.014-0.079-0.061-0.119
										C1809.598,1154.094,1809.619,1154.127,1809.647,1154.148z"/>
									<path fill="#3F3B3C" d="M1800.926,1162.483c0.021-0.001,0.037-0.001,0.065-0.002
										C1800.97,1162.473,1800.947,1162.475,1800.926,1162.483z"/>
									<path fill="#3F3B3C" d="M1801.722,1162.338c0.024-0.021,0.048-0.059,0.067-0.125
										C1801.736,1162.243,1801.723,1162.29,1801.722,1162.338z"/>
									<path fill="#3F3B3C" d="M1811.651,1152.017c0.025-0.038,0.041-0.085,0.025-0.154
										C1811.632,1151.915,1811.637,1151.969,1811.651,1152.017z"/>
									<path fill="#3F3B3C" d="M1801.843,1162.069l0.142-0.096c-0.013-0.015-0.022-0.025-0.038-0.043L1801.843,1162.069z"/>
									<path fill="#3F3B3C" d="M1800.75,1162.607c0.054-0.04,0.117-0.103,0.176-0.124
										C1800.811,1162.486,1800.762,1162.531,1800.75,1162.607z"/>
									<path fill="#3F3B3C" d="M1806.763,1157.528c0-0.008,0.005-0.011,0.008-0.018
										C1806.775,1157.329,1806.755,1157.425,1806.763,1157.528z"/>
									<polygon fill="#3F3B3C" points="1802.016,1161.197 1802.04,1161.19 1802.019,1161.099 									"/>
									<path fill="#3F3B3C" d="M1800.153,1163.038c0.018-0.027,0.029-0.057,0.022-0.097c-0.025,0.013-0.055,0.026-0.091,0.044
										C1800.117,1163.005,1800.137,1163.021,1800.153,1163.038z"/>
									<path fill="#3F3B3C" d="M1804.651,1158.984c0.042,0.11,0.081,0.175,0.118,0.216
										C1804.808,1159.158,1804.798,1159.098,1804.651,1158.984z"/>
								</g>
							</g>
						</g>
					</g>
				</g>
			</g>
		</g>
	</g>
</g>
</svg>
